Exo-Bold.ufo
<glyph name=".notdef" format="1">
  <advance width="657"/>
  <unicode hex="0000"/>
  <outline>
    <contour>
      <point x="53" y="-7" type="line"/>
      <point x="604" y="-7" type="line"/>
      <point x="604" y="544" type="line"/>
      <point x="53" y="544" type="line"/>
    </contour>
    <contour>
      <point x="496" y="162" type="line"/>
      <point x="390" y="268" type="line"/>
      <point x="496" y="374" type="line"/>
      <point x="435" y="435" type="line"/>
      <point x="329" y="329" type="line"/>
      <point x="223" y="435" type="line"/>
      <point x="162" y="374" type="line"/>
      <point x="268" y="268" type="line"/>
      <point x="162" y="162" type="line"/>
      <point x="223" y="101" type="line"/>
      <point x="329" y="207" type="line"/>
      <point x="435" y="101" type="line"/>
    </contour>
    <contour>
      <point x="121" y="61" type="line"/>
      <point x="121" y="476" type="line"/>
      <point x="536" y="476" type="line"/>
      <point x="536" y="61" type="line"/>
    </contour>
  </outline>
</glyph>
<glyph name="parenright" format="1">
  <advance width="386"/>
  <unicode hex="0029"/>
  <note>
    GF Latin Plus glyph
  </note>
  <outline>
    <contour>
      <point x="15" y="-210" type="curve"/>
      <point x="148" y="-210" type="line"/>
      <point x="244" y="-85"/>
      <point x="329" y="81"/>
      <point x="329" y="325" type="curve" smooth="yes"/>
      <point x="329" y="579"/>
      <point x="248" y="736"/>
      <point x="148" y="860" type="curve"/>
      <point x="15" y="860" type="line"/>
      <point x="118" y="691"/>
      <point x="180" y="542"/>
      <point x="180" y="325" type="curve" smooth="yes"/>
      <point x="180" y="104"/>
      <point x="104" y="-64"/>
    </contour>
  </outline>
</glyph>
<glyph name="comma" format="1">
  <advance width="234"/>
  <unicode hex="002C"/>
  <note>
    GF Latin Plus glyph
  </note>
  <outline>
    <contour>
      <point x="54" y="32" type="line" smooth="yes"/>
      <point x="54" y="17"/>
      <point x="63" y="10"/>
      <point x="75" y="10" type="curve" smooth="yes"/>
      <point x="85" y="10" type="line"/>
      <point x="85" y="-16" type="line" smooth="yes"/>
      <point x="85" y="-32"/>
      <point x="76" y="-36"/>
      <point x="58" y="-36" type="curve"/>
      <point x="58" y="-83" type="line"/>
      <point x="58" y="-83"/>
      <point x="80" y="-89"/>
      <point x="105" y="-89" type="curve" smooth="yes"/>
      <point x="139" y="-89"/>
      <point x="180" y="-77"/>
      <point x="180" y="-18" type="curve" smooth="yes"/>
      <point x="180" y="119" type="line" smooth="yes"/>
      <point x="180" y="132"/>
      <point x="175" y="142"/>
      <point x="159" y="142" type="curve" smooth="yes"/>
      <point x="75" y="142" type="line" smooth="yes"/>
      <point x="61" y="142"/>
      <point x="54" y="135"/>
      <point x="54" y="119" type="curve" smooth="yes"/>
    </contour>
  </outline>
</glyph>
<glyph name="three" format="1">
  <advance width="579"/>
  <unicode hex="0033"/>
  <note>
    GF Latin Plus glyph
  </note>
  <outline>
    <contour>
      <point x="54" y="606" type="line"/>
      <point x="260" y="606" type="line" smooth="yes"/>
      <point x="342" y="606"/>
      <point x="375" y="581"/>
      <point x="375" y="528" type="curve" smooth="yes"/>
      <point x="375" y="503" type="line" smooth="yes"/>
      <point x="375" y="458"/>
      <point x="340" y="442"/>
      <point x="280" y="439" type="curve" smooth="yes"/>
      <point x="104" y="429" type="line"/>
      <point x="104" y="315" type="line"/>
      <point x="286" y="308" type="line" smooth="yes"/>
      <point x="340" y="306"/>
      <point x="383" y="287"/>
      <point x="383" y="234" type="curve" smooth="yes"/>
      <point x="383" y="203" type="line" smooth="yes"/>
      <point x="383" y="149"/>
      <point x="346" y="134"/>
      <point x="265" y="134" type="curve" smooth="yes"/>
      <point x="38" y="134" type="line"/>
      <point x="38" y="15" type="line"/>
      <point x="116" y="2"/>
      <point x="215" y="-6"/>
      <point x="321" y="-6" type="curve" smooth="yes"/>
      <point x="453" y="-6"/>
      <point x="532" y="58"/>
      <point x="532" y="176" type="curve" smooth="yes"/>
      <point x="532" y="214" type="line" smooth="yes"/>
      <point x="532" y="300"/>
      <point x="484" y="356"/>
      <point x="428" y="372" type="curve"/>
      <point x="481" y="389"/>
      <point x="521" y="431"/>
      <point x="521" y="508" type="curve" smooth="yes"/>
      <point x="521" y="563" type="line" smooth="yes"/>
      <point x="521" y="682"/>
      <point x="449" y="745"/>
      <point x="319" y="746" type="curve" smooth="yes"/>
      <point x="220" y="748"/>
      <point x="129" y="736"/>
      <point x="54" y="724" type="curve"/>
    </contour>
  </outline>
</glyph>
<glyph name="five" format="1">
  <advance width="607"/>
  <unicode hex="0035"/>
  <note>
    GF Latin Plus glyph
  </note>
  <outline>
    <contour>
      <point x="59" y="11" type="line"/>
      <point x="138" y="3"/>
      <point x="233" y="-5"/>
      <point x="314" y="-5" type="curve" smooth="yes"/>
      <point x="475" y="-5"/>
      <point x="563" y="51"/>
      <point x="563" y="181" type="curve" smooth="yes"/>
      <point x="563" y="290" type="line" smooth="yes"/>
      <point x="563" y="388"/>
      <point x="506" y="464"/>
      <point x="391" y="464" type="curve" smooth="yes"/>
      <point x="310" y="464" type="line" smooth="yes"/>
      <point x="266" y="464"/>
      <point x="229" y="452"/>
      <point x="209" y="431" type="curve"/>
      <point x="217" y="607" type="line"/>
      <point x="534" y="607" type="line"/>
      <point x="534" y="740" type="line"/>
      <point x="90" y="740" type="line"/>
      <point x="69" y="284" type="line"/>
      <point x="209" y="284" type="line"/>
      <point x="215" y="321"/>
      <point x="236" y="339"/>
      <point x="280" y="339" type="curve" smooth="yes"/>
      <point x="338" y="339" type="line" smooth="yes"/>
      <point x="393" y="339"/>
      <point x="414" y="310"/>
      <point x="414" y="263" type="curve" smooth="yes"/>
      <point x="414" y="212" type="line" smooth="yes"/>
      <point x="414" y="170"/>
      <point x="393" y="128"/>
      <point x="320" y="128" type="curve" smooth="yes"/>
      <point x="59" y="128" type="line"/>
    </contour>
  </outline>
</glyph>
<glyph name="six" format="1">
  <advance width="607"/>
  <unicode hex="0036"/>
  <note>
    GF Latin Plus glyph
  </note>
  <outline>
    <contour>
      <point x="199" y="320" type="curve"/>
      <point x="325" y="320" type="line" smooth="yes"/>
      <point x="387" y="320"/>
      <point x="415" y="306"/>
      <point x="415" y="248" type="curve" smooth="yes"/>
      <point x="415" y="199" type="line" smooth="yes"/>
      <point x="415" y="147"/>
      <point x="389" y="128"/>
      <point x="346" y="128" type="curve" smooth="yes"/>
      <point x="302" y="128" type="line" smooth="yes"/>
      <point x="231" y="128"/>
      <point x="199" y="168"/>
    </contour>
    <contour>
      <point x="51" y="360" type="curve" smooth="yes"/>
      <point x="51" y="70"/>
      <point x="128" y="-5"/>
      <point x="272" y="-5" type="curve" smooth="yes"/>
      <point x="380" y="-5" type="line" smooth="yes"/>
      <point x="487" y="-5"/>
      <point x="563" y="45"/>
      <point x="563" y="170" type="curve" smooth="yes"/>
      <point x="563" y="276" type="line" smooth="yes"/>
      <point x="563" y="381"/>
      <point x="513" y="446"/>
      <point x="366" y="446" type="curve" smooth="yes"/>
      <point x="299" y="446"/>
      <point x="245" y="442"/>
      <point x="199" y="429" type="curve"/>
      <point x="199" y="550"/>
      <point x="244" y="613"/>
      <point x="344" y="613" type="curve" smooth="yes"/>
      <point x="519" y="613" type="line"/>
      <point x="519" y="730" type="line"/>
      <point x="465" y="741"/>
      <point x="395" y="746"/>
      <point x="330" y="746" type="curve" smooth="yes"/>
      <point x="154" y="746"/>
      <point x="51" y="650"/>
    </contour>
  </outline>
</glyph>
<glyph name="question" format="1">
  <advance width="529"/>
  <unicode hex="003F"/>
  <note>
    GF Latin Plus glyph
  </note>
  <outline>
    <contour>
      <point x="43" y="573" type="line"/>
      <point x="100" y="593"/>
      <point x="152" y="606"/>
      <point x="210" y="606" type="curve" smooth="yes"/>
      <point x="284" y="606"/>
      <point x="323" y="580"/>
      <point x="323" y="513" type="curve" smooth="yes"/>
      <point x="323" y="481" type="line" smooth="yes"/>
      <point x="323" y="419"/>
      <point x="286" y="401"/>
      <point x="218" y="401" type="curve" smooth="yes"/>
      <point x="148" y="401" type="line"/>
      <point x="148" y="203" type="line"/>
      <point x="259" y="203" type="line"/>
      <point x="259" y="289" type="line"/>
      <point x="404" y="289"/>
      <point x="471" y="354"/>
      <point x="471" y="478" type="curve" smooth="yes"/>
      <point x="471" y="537" type="line" smooth="yes"/>
      <point x="471" y="656"/>
      <point x="399" y="740"/>
      <point x="255" y="739" type="curve" smooth="yes"/>
      <point x="166" y="739"/>
      <point x="95" y="715"/>
      <point x="43" y="682" type="curve"/>
    </contour>
    <component base="period" xOffset="86"/>
  </outline>
</glyph>
<glyph name="B" format="1">
  <advance width="627"/>
  <unicode hex="0042"/>
  <note>
    GF Latin Plus glyph
  </note>
  <outline>
    <contour>
      <point x="212" y="435" type="line"/>
      <point x="212" y="607" type="line"/>
      <point x="354" y="607" type="line" smooth="yes"/>
      <point x="393" y="607"/>
      <point x="426" y="585"/>
      <point x="425" y="520" type="curve" smooth="yes"/>
      <point x="424" y="470"/>
      <point x="398" y="435"/>
      <point x="356" y="435" type="curve" smooth="yes"/>
    </contour>
    <contour>
      <point x="212" y="133" type="line"/>
      <point x="212" y="321" type="line"/>
      <point x="364" y="321" type="line" smooth="yes"/>
      <point x="414" y="321"/>
      <point x="449" y="287"/>
      <point x="449" y="230" type="curve" smooth="yes"/>
      <point x="449" y="160"/>
      <point x="416" y="133"/>
      <point x="364" y="133" type="curve" smooth="yes"/>
    </contour>
    <contour>
      <point x="64" y="0" type="line"/>
      <point x="368" y="0" type="line" smooth="yes"/>
      <point x="511" y="0"/>
      <point x="590" y="53"/>
      <point x="590" y="204" type="curve" smooth="yes"/>
      <point x="590" y="314"/>
      <point x="527" y="369"/>
      <point x="463" y="384" type="curve"/>
      <point x="527" y="401"/>
      <point x="566" y="457"/>
      <point x="566" y="546" type="curve" smooth="yes"/>
      <point x="566" y="670"/>
      <point x="501" y="740"/>
      <point x="355" y="740" type="curve" smooth="yes"/>
      <point x="64" y="740" type="line"/>
    </contour>
    <contour>
      <point x="294" y="810" type="move" name="top"/>
    </contour>
  </outline>
</glyph>
<glyph name="C" format="1">
  <advance width="586"/>
  <unicode hex="0043"/>
  <note>
    GF Latin Plus glyph
  </note>
  <outline>
    <contour>
      <point x="45" y="372" type="curve" smooth="yes"/>
      <point x="45" y="54"/>
      <point x="142" y="-6"/>
      <point x="313" y="-6" type="curve" smooth="yes"/>
      <point x="416" y="-6"/>
      <point x="491" y="5"/>
      <point x="546" y="23" type="curve"/>
      <point x="546" y="137" type="line"/>
      <point x="507" y="132"/>
      <point x="447" y="127"/>
      <point x="346" y="127" type="curve" smooth="yes"/>
      <point x="225" y="127"/>
      <point x="193" y="172"/>
      <point x="193" y="371" type="curve" smooth="yes"/>
      <point x="193" y="578"/>
      <point x="234" y="614"/>
      <point x="346" y="614" type="curve" smooth="yes"/>
      <point x="432" y="614"/>
      <point x="510" y="605"/>
      <point x="546" y="597" type="curve"/>
      <point x="546" y="712" type="line"/>
      <point x="498" y="728"/>
      <point x="414" y="747"/>
      <point x="315" y="747" type="curve" smooth="yes"/>
      <point x="146" y="747"/>
      <point x="45" y="678"/>
    </contour>
    <contour>
      <point x="315" y="810" type="move" name="top"/>
    </contour>
    <contour>
      <point x="337" y="-150" type="move" name="bottom"/>
    </contour>
  </outline>
</glyph>
<glyph name="G" format="1">
  <advance width="666"/>
  <unicode hex="0047"/>
  <note>
    GF Latin Plus glyph
  </note>
  <outline>
    <contour>
      <point x="45" y="370" type="curve" smooth="yes"/>
      <point x="45" y="143"/>
      <point x="89" y="-6"/>
      <point x="274" y="-5" type="curve" smooth="yes"/>
      <point x="357" y="-5"/>
      <point x="432" y="27"/>
      <point x="471" y="50" type="curve"/>
      <point x="491" y="0" type="line"/>
      <point x="602" y="0" type="line"/>
      <point x="602" y="420" type="line"/>
      <point x="574" y="422"/>
      <point x="541" y="423"/>
      <point x="498" y="423" type="curve" smooth="yes"/>
      <point x="441" y="423"/>
      <point x="368" y="419"/>
      <point x="327" y="413" type="curve"/>
      <point x="327" y="296" type="line"/>
      <point x="460" y="296" type="line"/>
      <point x="460" y="152" type="line"/>
      <point x="429" y="142"/>
      <point x="376" y="131"/>
      <point x="321" y="131" type="curve" smooth="yes"/>
      <point x="224" y="131"/>
      <point x="193" y="177"/>
      <point x="193" y="369" type="curve" smooth="yes"/>
      <point x="193" y="554"/>
      <point x="218" y="614"/>
      <point x="345" y="614" type="curve" smooth="yes"/>
      <point x="437" y="614"/>
      <point x="525" y="606"/>
      <point x="568" y="600" type="curve"/>
      <point x="568" y="714" type="line"/>
      <point x="492" y="733"/>
      <point x="420" y="747"/>
      <point x="318" y="747" type="curve" smooth="yes"/>
      <point x="94" y="747"/>
      <point x="45" y="607"/>
    </contour>
    <contour>
      <point x="326" y="810" type="move" name="top"/>
    </contour>
    <contour>
      <point x="352" y="-150" type="move" name="bottom"/>
    </contour>
  </outline>
</glyph>
<glyph name="K" format="1">
  <advance width="645"/>
  <unicode hex="004B"/>
  <note>
    GF Latin Plus glyph
  </note>
  <outline>
    <contour>
      <point x="64" y="0" type="line"/>
      <point x="212" y="0" type="line"/>
      <point x="212" y="300" type="line"/>
      <point x="310" y="300" type="line"/>
      <point x="468" y="0" type="line"/>
      <point x="626" y="0" type="line"/>
      <point x="428" y="368" type="line"/>
      <point x="620" y="740" type="line"/>
      <point x="462" y="740" type="line"/>
      <point x="310" y="434" type="line"/>
      <point x="212" y="434" type="line"/>
      <point x="212" y="740" type="line"/>
      <point x="64" y="740" type="line"/>
    </contour>
    <contour>
      <point x="321" y="810" type="move" name="top"/>
    </contour>
    <contour>
      <point x="321" y="-150" type="move" name="bottom"/>
    </contour>
  </outline>
</glyph>
<glyph name="Q" format="1">
  <advance width="699"/>
  <unicode hex="0051"/>
  <note>
    GF Latin Plus glyph
  </note>
  <outline>
    <contour>
      <point x="318" y="-37" type="line"/>
      <point x="323" y="-147"/>
      <point x="419" y="-197"/>
      <point x="514" y="-197" type="curve" smooth="yes"/>
      <point x="532" y="-197"/>
      <point x="550" y="-193"/>
      <point x="568" y="-190" type="curve"/>
      <point x="568" y="-81" type="line"/>
      <point x="550" y="-85"/>
      <point x="529" y="-91"/>
      <point x="507" y="-91" type="curve" smooth="yes"/>
      <point x="468" y="-91"/>
      <point x="429" y="-76"/>
      <point x="420" y="-37" type="curve"/>
    </contour>
    <component base="O"/>
  </outline>
</glyph>
<glyph name="X" format="1">
  <advance width="663"/>
  <unicode hex="0058"/>
  <note>
    GF Latin Plus glyph
  </note>
  <outline>
    <contour>
      <point x="20" y="0" type="line"/>
      <point x="184" y="0" type="line"/>
      <point x="344" y="279" type="line"/>
      <point x="268" y="404" type="line"/>
    </contour>
    <contour>
      <point x="319" y="452" type="line"/>
      <point x="394" y="327" type="line"/>
      <point x="646" y="740" type="line"/>
      <point x="483" y="740" type="line"/>
    </contour>
    <contour>
      <point x="17" y="740" type="line"/>
      <point x="479" y="0" type="line"/>
      <point x="643" y="0" type="line"/>
      <point x="181" y="740" type="line"/>
    </contour>
    <contour>
      <point x="311" y="810" type="move" name="top"/>
    </contour>
    <contour>
      <point x="311" y="-150" type="move" name="bottom"/>
    </contour>
  </outline>
</glyph>
<glyph name="a" format="1">
  <advance width="550"/>
  <unicode hex="0061"/>
  <note>
    GF Latin Plus glyph
  </note>
  <outline>
    <contour>
      <point x="182" y="154" type="curve" smooth="yes"/>
      <point x="182" y="176" type="line" smooth="yes"/>
      <point x="182" y="215"/>
      <point x="206" y="238"/>
      <point x="258" y="242" type="curve" smooth="yes"/>
      <point x="348" y="248" type="line"/>
      <point x="348" y="123" type="line"/>
      <point x="341" y="119"/>
      <point x="280" y="96"/>
      <point x="246" y="97" type="curve" smooth="yes"/>
      <point x="210" y="97"/>
      <point x="182" y="112"/>
    </contour>
    <contour>
      <point x="34" y="130" type="line" smooth="yes"/>
      <point x="34" y="45"/>
      <point x="90" y="-6"/>
      <point x="171" y="-6" type="curve" smooth="yes"/>
      <point x="259" y="-6"/>
      <point x="336" y="38"/>
      <point x="355" y="57" type="curve"/>
      <point x="379" y="0" type="line"/>
      <point x="496" y="0" type="line"/>
      <point x="496" y="365" type="line" smooth="yes"/>
      <point x="496" y="503"/>
      <point x="419" y="544"/>
      <point x="285" y="544" type="curve" smooth="yes"/>
      <point x="188" y="544"/>
      <point x="123" y="530"/>
      <point x="70" y="514" type="curve"/>
      <point x="70" y="428" type="line"/>
      <point x="231" y="428" type="line" smooth="yes"/>
      <point x="330" y="428"/>
      <point x="348" y="405"/>
      <point x="348" y="355" type="curve" smooth="yes"/>
      <point x="348" y="318" type="line"/>
      <point x="211" y="318" type="line" smooth="yes"/>
      <point x="89" y="318"/>
      <point x="34" y="260"/>
      <point x="34" y="178" type="curve" smooth="yes"/>
    </contour>
    <contour>
      <point x="270" y="650" type="move" name="top"/>
    </contour>
    <contour>
      <point x="486" y="0" type="move" name="ogonek"/>
    </contour>
    <contour>
      <point x="270" y="-150" type="move" name="bottom"/>
    </contour>
  </outline>
</glyph>
<glyph name="e" format="1">
  <advance width="537"/>
  <unicode hex="0065"/>
  <note>
    GF Latin Plus glyph
  </note>
  <outline>
    <contour>
      <point x="186" y="304" type="line"/>
      <point x="186" y="410"/>
      <point x="210" y="438"/>
      <point x="278" y="438" type="curve" smooth="yes"/>
      <point x="341" y="438"/>
      <point x="366" y="418"/>
      <point x="366" y="359" type="curve" smooth="yes"/>
      <point x="366" y="318"/>
      <point x="348" y="304"/>
      <point x="308" y="304" type="curve" smooth="yes"/>
    </contour>
    <contour>
      <point x="41" y="268" type="curve" smooth="yes"/>
      <point x="41" y="54"/>
      <point x="106" y="-5"/>
      <point x="283" y="-5" type="curve" smooth="yes"/>
      <point x="369" y="-5"/>
      <point x="427" y="7"/>
      <point x="479" y="18" type="curve"/>
      <point x="479" y="105" type="line"/>
      <point x="322" y="105" type="line" smooth="yes"/>
      <point x="213" y="105"/>
      <point x="191" y="135"/>
      <point x="188" y="216" type="curve"/>
      <point x="323" y="216" type="line" smooth="yes"/>
      <point x="429" y="216"/>
      <point x="497" y="251"/>
      <point x="497" y="360" type="curve" smooth="yes"/>
      <point x="497" y="506"/>
      <point x="437" y="545"/>
      <point x="278" y="545" type="curve" smooth="yes"/>
      <point x="100" y="545"/>
      <point x="41" y="486"/>
    </contour>
    <contour>
      <point x="270" y="650" type="move" name="top"/>
    </contour>
    <contour>
      <point x="469" y="24" type="move" name="ogonek"/>
    </contour>
    <contour>
      <point x="270" y="-150" type="move" name="bottom"/>
    </contour>
  </outline>
</glyph>
<glyph name="g" format="1">
  <advance width="582"/>
  <unicode hex="0067"/>
  <note>
    GF Latin Plus glyph
  </note>
  <outline>
    <contour>
      <point x="183" y="352" type="curve" smooth="yes"/>
      <point x="183" y="406"/>
      <point x="208" y="426"/>
      <point x="259" y="426" type="curve" smooth="yes"/>
      <point x="315" y="426" type="line" smooth="yes"/>
      <point x="362" y="426"/>
      <point x="388" y="406"/>
      <point x="388" y="350" type="curve" smooth="yes"/>
      <point x="388" y="306"/>
      <point x="372" y="276"/>
      <point x="311" y="276" type="curve" smooth="yes"/>
      <point x="254" y="276" type="line" smooth="yes"/>
      <point x="207" y="276"/>
      <point x="183" y="299"/>
    </contour>
    <contour>
      <point x="50" y="362" type="curve" smooth="yes"/>
      <point x="50" y="301"/>
      <point x="72" y="242"/>
      <point x="136" y="208" type="curve"/>
      <point x="80" y="195"/>
      <point x="47" y="157"/>
      <point x="47" y="103" type="curve" smooth="yes"/>
      <point x="47" y="37"/>
      <point x="104" y="-13"/>
      <point x="224" y="-13" type="curve" smooth="yes"/>
      <point x="343" y="-13" type="line" smooth="yes"/>
      <point x="397" y="-13"/>
      <point x="421" y="-35"/>
      <point x="421" y="-70" type="curve" smooth="yes"/>
      <point x="421" y="-86" type="line" smooth="yes"/>
      <point x="421" y="-125"/>
      <point x="389" y="-144"/>
      <point x="339" y="-144" type="curve" smooth="yes"/>
      <point x="237" y="-144" type="line" smooth="yes"/>
      <point x="187" y="-144"/>
      <point x="160" y="-124"/>
      <point x="160" y="-85" type="curve" smooth="yes"/>
      <point x="160" y="-74" type="line" smooth="yes"/>
      <point x="160" y="-34"/>
      <point x="191" y="-13"/>
      <point x="235" y="-13" type="curve"/>
      <point x="191" y="33" type="line"/>
      <point x="104" y="33"/>
      <point x="20" y="-16"/>
      <point x="20" y="-103" type="curve" smooth="yes"/>
      <point x="20" y="-119" type="line" smooth="yes"/>
      <point x="20" y="-203"/>
      <point x="95" y="-248"/>
      <point x="196" y="-248" type="curve" smooth="yes"/>
      <point x="357" y="-248" type="line" smooth="yes"/>
      <point x="496" y="-248"/>
      <point x="561" y="-184"/>
      <point x="561" y="-78" type="curve" smooth="yes"/>
      <point x="561" y="-63" type="line" smooth="yes"/>
      <point x="561" y="53"/>
      <point x="490" y="98"/>
      <point x="367" y="98" type="curve" smooth="yes"/>
      <point x="219" y="98" type="line" smooth="yes"/>
      <point x="195" y="98"/>
      <point x="172" y="105"/>
      <point x="172" y="128" type="curve" smooth="yes"/>
      <point x="172" y="155"/>
      <point x="197" y="165"/>
      <point x="233" y="165" type="curve" smooth="yes"/>
      <point x="328" y="165" type="line" smooth="yes"/>
      <point x="468" y="165"/>
      <point x="522" y="236"/>
      <point x="522" y="329" type="curve" smooth="yes"/>
      <point x="522" y="393"/>
      <point x="501" y="421"/>
      <point x="482" y="441" type="curve"/>
      <point x="564" y="456" type="line"/>
      <point x="564" y="537" type="line"/>
      <point x="273" y="537" type="line" smooth="yes"/>
      <point x="122" y="537"/>
      <point x="50" y="481"/>
    </contour>
    <contour>
      <point x="290" y="650" type="move" name="top"/>
    </contour>
  </outline>
</glyph>
<glyph name="i" format="1">
  <advance width="262"/>
  <unicode hex="0069"/>
  <note>
    GF Latin Plus glyph
  </note>
  <outline>
    <contour>
      <point x="54" y="636" type="line" smooth="yes"/>
      <point x="54" y="624"/>
      <point x="62" y="616"/>
      <point x="75" y="616" type="curve" smooth="yes"/>
      <point x="189" y="616" type="line" smooth="yes"/>
      <point x="201" y="616"/>
      <point x="208" y="623"/>
      <point x="208" y="636" type="curve" smooth="yes"/>
      <point x="208" y="734" type="line" smooth="yes"/>
      <point x="208" y="746"/>
      <point x="202" y="755"/>
      <point x="189" y="755" type="curve" smooth="yes"/>
      <point x="75" y="755" type="line" smooth="yes"/>
      <point x="61" y="755"/>
      <point x="54" y="747"/>
      <point x="54" y="734" type="curve" smooth="yes"/>
    </contour>
    <component base="dotlessi"/>
    <contour>
      <point x="195" y="0" type="move" name="ogonek"/>
    </contour>
    <contour>
      <point x="131" y="-150" type="move" name="bottom"/>
    </contour>
  </outline>
</glyph>
<glyph name="j" format="1">
  <advance width="262"/>
  <unicode hex="006A"/>
  <note>
    GF Latin Plus glyph
  </note>
  <outline>
    <contour>
      <point x="53" y="636" type="line" smooth="yes"/>
      <point x="53" y="624"/>
      <point x="62" y="616"/>
      <point x="74" y="616" type="curve" smooth="yes"/>
      <point x="188" y="616" type="line" smooth="yes"/>
      <point x="200" y="616"/>
      <point x="207" y="623"/>
      <point x="207" y="636" type="curve" smooth="yes"/>
      <point x="207" y="734" type="line" smooth="yes"/>
      <point x="207" y="746"/>
      <point x="201" y="755"/>
      <point x="188" y="755" type="curve" smooth="yes"/>
      <point x="74" y="755" type="line" smooth="yes"/>
      <point x="60" y="755"/>
      <point x="53" y="747"/>
      <point x="53" y="734" type="curve" smooth="yes"/>
    </contour>
    <component base="jdotless"/>
  </outline>
</glyph>
<glyph name="l" format="1">
  <advance width="313"/>
  <unicode hex="006C"/>
  <note>
    GF Latin Plus glyph
  </note>
  <outline>
    <contour>
      <point x="57" y="173" type="line" smooth="yes"/>
      <point x="57" y="52"/>
      <point x="112" y="-2"/>
      <point x="225" y="-2" type="curve" smooth="yes"/>
      <point x="302" y="-2" type="line"/>
      <point x="302" y="105" type="line"/>
      <point x="261" y="111" type="line" smooth="yes"/>
      <point x="223" y="116"/>
      <point x="205" y="135"/>
      <point x="205" y="195" type="curve" smooth="yes"/>
      <point x="205" y="763" type="line"/>
      <point x="57" y="763" type="line"/>
    </contour>
    <contour>
      <point x="225" y="650" type="move" name="altcaron"/>
    </contour>
    <contour>
      <point x="131" y="863" type="move" name="top"/>
    </contour>
    <contour>
      <point x="268" y="350" type="move" name="dot"/>
    </contour>
    <contour>
      <point x="185" y="-150" type="move" name="bottom"/>
    </contour>
  </outline>
</glyph>
<glyph name="p" format="1">
  <advance width="585"/>
  <unicode hex="0070"/>
  <note>
    GF Latin Plus glyph
  </note>
  <outline>
    <contour>
      <point x="205" y="141" type="curve"/>
      <point x="205" y="396" type="line"/>
      <point x="229" y="410"/>
      <point x="265" y="426"/>
      <point x="306" y="426" type="curve" smooth="yes"/>
      <point x="358" y="426"/>
      <point x="396" y="389"/>
      <point x="396" y="268" type="curve" smooth="yes"/>
      <point x="396" y="144"/>
      <point x="353" y="115"/>
      <point x="306" y="115" type="curve" smooth="yes"/>
      <point x="270" y="115"/>
      <point x="231" y="125"/>
    </contour>
    <contour>
      <point x="57" y="-237" type="line"/>
      <point x="205" y="-237" type="line"/>
      <point x="205" y="28" type="line"/>
      <point x="248" y="5"/>
      <point x="304" y="-7"/>
      <point x="354" y="-7" type="curve" smooth="yes"/>
      <point x="500" y="-7"/>
      <point x="544" y="95"/>
      <point x="544" y="268" type="curve" smooth="yes"/>
      <point x="544" y="440"/>
      <point x="487" y="545"/>
      <point x="354" y="545" type="curve" smooth="yes"/>
      <point x="292" y="545"/>
      <point x="243" y="516"/>
      <point x="205" y="486" type="curve"/>
      <point x="181" y="537" type="line"/>
      <point x="57" y="537" type="line"/>
    </contour>
    <contour>
      <point x="282" y="650" type="move" name="top"/>
    </contour>
  </outline>
</glyph>
<glyph name="r" format="1">
  <advance width="423"/>
  <unicode hex="0072"/>
  <note>
    GF Latin Plus glyph
  </note>
  <outline>
    <contour>
      <point x="57" y="0" type="line"/>
      <point x="205" y="0" type="line"/>
      <point x="205" y="334" type="line"/>
      <point x="241" y="373"/>
      <point x="280" y="392"/>
      <point x="338" y="392" type="curve" smooth="yes"/>
      <point x="357" y="392"/>
      <point x="380" y="389"/>
      <point x="401" y="387" type="curve"/>
      <point x="401" y="539" type="line"/>
      <point x="387" y="543"/>
      <point x="371" y="544"/>
      <point x="357" y="544" type="curve" smooth="yes"/>
      <point x="290" y="544"/>
      <point x="243" y="504"/>
      <point x="205" y="455" type="curve"/>
      <point x="171" y="537" type="line"/>
      <point x="57" y="537" type="line"/>
    </contour>
    <contour>
      <point x="222" y="650" type="move" name="top"/>
    </contour>
    <contour>
      <point x="131" y="-150" type="move" name="bottom"/>
    </contour>
  </outline>
</glyph>
<glyph name="u" format="1">
  <advance width="595"/>
  <unicode hex="0075"/>
  <note>
    GF Latin Plus glyph
  </note>
  <outline>
    <contour>
      <point x="55" y="157" type="line" smooth="yes"/>
      <point x="55" y="54"/>
      <point x="112" y="-6"/>
      <point x="209" y="-6" type="curve" smooth="yes"/>
      <point x="278" y="-6"/>
      <point x="342" y="23"/>
      <point x="391" y="55" type="curve"/>
      <point x="417" y="0" type="line"/>
      <point x="540" y="0" type="line"/>
      <point x="540" y="537" type="line"/>
      <point x="391" y="537" type="line"/>
      <point x="391" y="164" type="line"/>
      <point x="360" y="140"/>
      <point x="318" y="125"/>
      <point x="281" y="125" type="curve" smooth="yes"/>
      <point x="233" y="125"/>
      <point x="203" y="141"/>
      <point x="203" y="201" type="curve" smooth="yes"/>
      <point x="203" y="537" type="line"/>
      <point x="55" y="537" type="line"/>
    </contour>
    <contour>
      <point x="293" y="650" type="move" name="top"/>
    </contour>
    <contour>
      <point x="530" y="0" type="move" name="ogonek"/>
    </contour>
    <contour>
      <point x="293" y="-150" type="move" name="bottom"/>
    </contour>
  </outline>
</glyph>
<glyph name="x" format="1">
  <advance width="541"/>
  <unicode hex="0078"/>
  <note>
    GF Latin Plus glyph
  </note>
  <outline>
    <contour>
      <point x="9" y="0" type="line"/>
      <point x="159" y="0" type="line"/>
      <point x="270" y="176" type="line"/>
      <point x="216" y="315" type="line"/>
    </contour>
    <contour>
      <point x="262" y="344" type="line"/>
      <point x="325" y="220" type="line"/>
      <point x="533" y="537" type="line"/>
      <point x="383" y="537" type="line"/>
    </contour>
    <contour>
      <point x="9" y="537" type="line"/>
      <point x="383" y="0" type="line"/>
      <point x="533" y="0" type="line"/>
      <point x="158" y="537" type="line"/>
    </contour>
  </outline>
</glyph>
<glyph name="cent" format="1">
  <advance width="486"/>
  <unicode hex="00A2"/>
  <note>
    GF Latin Plus glyph
  </note>
  <outline>
    <contour>
      <point x="31" y="266" type="curve" smooth="yes"/>
      <point x="31" y="53"/>
      <point x="115" y="-3"/>
      <point x="223" y="-5" type="curve"/>
      <point x="223" y="-92" type="line"/>
      <point x="307" y="-92" type="line"/>
      <point x="307" y="-5" type="line"/>
      <point x="359" y="-4"/>
      <point x="406" y="6"/>
      <point x="454" y="31" type="curve"/>
      <point x="454" y="118" type="line"/>
      <point x="436" y="114"/>
      <point x="378" y="106"/>
      <point x="290" y="106" type="curve" smooth="yes"/>
      <point x="210" y="106"/>
      <point x="179" y="134"/>
      <point x="179" y="263" type="curve" smooth="yes"/>
      <point x="179" y="402"/>
      <point x="211" y="425"/>
      <point x="288" y="425" type="curve" smooth="yes"/>
      <point x="374" y="425"/>
      <point x="433" y="419"/>
      <point x="448" y="416" type="curve"/>
      <point x="448" y="503" type="line"/>
      <point x="401" y="520"/>
      <point x="352" y="531"/>
      <point x="309" y="534" type="curve"/>
      <point x="309" y="630" type="line"/>
      <point x="226" y="630" type="line"/>
      <point x="226" y="536" type="line"/>
      <point x="112" y="536"/>
      <point x="31" y="482"/>
    </contour>
  </outline>
</glyph>
<glyph name="sterling" format="1">
  <advance width="609"/>
  <unicode hex="00A3"/>
  <note>
    GF Latin Plus glyph
  </note>
  <outline>
    <contour>
      <point x="58" y="0" type="line"/>
      <point x="559" y="0" type="line"/>
      <point x="559" y="133" type="line"/>
      <point x="299" y="133" type="line"/>
      <point x="299" y="316" type="line"/>
      <point x="481" y="326" type="line"/>
      <point x="481" y="407" type="line"/>
      <point x="299" y="420" type="line"/>
      <point x="299" y="512" type="line" smooth="yes"/>
      <point x="299" y="592"/>
      <point x="329" y="612"/>
      <point x="398" y="612" type="curve" smooth="yes"/>
      <point x="555" y="612" type="line"/>
      <point x="555" y="731" type="line"/>
      <point x="518" y="737"/>
      <point x="459" y="744"/>
      <point x="392" y="744" type="curve" smooth="yes"/>
      <point x="226" y="744"/>
      <point x="151" y="678"/>
      <point x="151" y="496" type="curve" smooth="yes"/>
      <point x="151" y="420" type="line"/>
      <point x="58" y="400" type="line"/>
      <point x="58" y="326" type="line"/>
      <point x="151" y="316" type="line"/>
      <point x="151" y="133" type="line"/>
      <point x="58" y="113" type="line"/>
    </contour>
  </outline>
</glyph>
<glyph name="currency" format="1">
  <advance width="609"/>
  <unicode hex="00A4"/>
  <note>
    GF Latin Plus glyph
  </note>
  <outline>
    <contour>
      <point x="304" y="533" type="curve" smooth="yes"/>
      <point x="207" y="533"/>
      <point x="128" y="453"/>
      <point x="128" y="356" type="curve" smooth="yes"/>
      <point x="128" y="259"/>
      <point x="207" y="179"/>
      <point x="304" y="179" type="curve" smooth="yes"/>
      <point x="401" y="179"/>
      <point x="481" y="259"/>
      <point x="481" y="356" type="curve" smooth="yes"/>
      <point x="481" y="453"/>
      <point x="401" y="533"/>
    </contour>
    <contour>
      <point x="230" y="491" type="line"/>
      <point x="126" y="595" type="line"/>
      <point x="65" y="534" type="line"/>
      <point x="169" y="430" type="line"/>
    </contour>
    <contour>
      <point x="437" y="428" type="line"/>
      <point x="543" y="534" type="line"/>
      <point x="482" y="595" type="line"/>
      <point x="376" y="489" type="line"/>
    </contour>
    <contour>
      <point x="543" y="178" type="line"/>
      <point x="437" y="284" type="line"/>
      <point x="376" y="223" type="line"/>
      <point x="482" y="117" type="line"/>
    </contour>
    <contour>
      <point x="126" y="117" type="line"/>
      <point x="234" y="225" type="line"/>
      <point x="173" y="286" type="line"/>
      <point x="65" y="178" type="line"/>
    </contour>
    <contour>
      <point x="304" y="458" type="curve" smooth="yes"/>
      <point x="360" y="458"/>
      <point x="406" y="412"/>
      <point x="406" y="356" type="curve" smooth="yes"/>
      <point x="406" y="301"/>
      <point x="360" y="254"/>
      <point x="304" y="254" type="curve" smooth="yes"/>
      <point x="249" y="254"/>
      <point x="204" y="301"/>
      <point x="204" y="356" type="curve" smooth="yes"/>
      <point x="204" y="412"/>
      <point x="249" y="458"/>
    </contour>
  </outline>
</glyph>
<glyph name="section" format="1">
  <advance width="539"/>
  <unicode hex="00A7"/>
  <note>
    GF Latin Plus glyph
  </note>
  <outline>
    <contour>
      <point x="182" y="368" type="curve" smooth="yes"/>
      <point x="182" y="404" type="line" smooth="yes"/>
      <point x="182" y="436"/>
      <point x="196" y="448"/>
      <point x="238" y="448" type="curve" smooth="yes"/>
      <point x="300" y="448" type="line" smooth="yes"/>
      <point x="346" y="448"/>
      <point x="360" y="437"/>
      <point x="360" y="406" type="curve" smooth="yes"/>
      <point x="360" y="369" type="line" smooth="yes"/>
      <point x="360" y="330"/>
      <point x="347" y="326"/>
      <point x="300" y="326" type="curve" smooth="yes"/>
      <point x="238" y="326" type="line" smooth="yes"/>
      <point x="197" y="326"/>
      <point x="182" y="341"/>
    </contour>
    <contour>
      <point x="41" y="331" type="line" smooth="yes"/>
      <point x="41" y="242"/>
      <point x="101" y="215"/>
      <point x="202" y="215" type="curve" smooth="yes"/>
      <point x="300" y="215" type="line" smooth="yes"/>
      <point x="342" y="215"/>
      <point x="350" y="206"/>
      <point x="350" y="180" type="curve" smooth="yes"/>
      <point x="350" y="152" type="line" smooth="yes"/>
      <point x="350" y="127"/>
      <point x="339" y="113"/>
      <point x="284" y="113" type="curve" smooth="yes"/>
      <point x="80" y="113" type="line"/>
      <point x="80" y="8" type="line"/>
      <point x="142" y="-3"/>
      <point x="245" y="-6"/>
      <point x="315" y="-6" type="curve" smooth="yes"/>
      <point x="424" y="-6"/>
      <point x="495" y="29"/>
      <point x="495" y="147" type="curve" smooth="yes"/>
      <point x="495" y="198" type="line" smooth="yes"/>
      <point x="495" y="249"/>
      <point x="478" y="289"/>
      <point x="432" y="302" type="curve"/>
      <point x="481" y="319"/>
      <point x="501" y="356"/>
      <point x="501" y="401" type="curve" smooth="yes"/>
      <point x="501" y="441" type="line" smooth="yes"/>
      <point x="501" y="527"/>
      <point x="451" y="560"/>
      <point x="336" y="560" type="curve" smooth="yes"/>
      <point x="240" y="560" type="line" smooth="yes"/>
      <point x="202" y="560"/>
      <point x="191" y="574"/>
      <point x="191" y="597" type="curve" smooth="yes"/>
      <point x="191" y="621" type="line" smooth="yes"/>
      <point x="191" y="654"/>
      <point x="209" y="665"/>
      <point x="251" y="665" type="curve" smooth="yes"/>
      <point x="460" y="665" type="line"/>
      <point x="460" y="768" type="line"/>
      <point x="408" y="780"/>
      <point x="291" y="784"/>
      <point x="229" y="784" type="curve" smooth="yes"/>
      <point x="104" y="784"/>
      <point x="50" y="729"/>
      <point x="50" y="644" type="curve" smooth="yes"/>
      <point x="50" y="590" type="line" smooth="yes"/>
      <point x="50" y="538"/>
      <point x="64" y="493"/>
      <point x="112" y="472" type="curve"/>
      <point x="62" y="454"/>
      <point x="41" y="430"/>
      <point x="41" y="371" type="curve" smooth="yes"/>
    </contour>
  </outline>
</glyph>
<glyph name="copyright" format="1">
  <advance width="811"/>
  <unicode hex="00A9"/>
  <note>
    GF Latin Plus glyph
  </note>
  <outline>
    <contour>
      <point x="221" y="365" type="curve" smooth="yes"/>
      <point x="221" y="188"/>
      <point x="297" y="147"/>
      <point x="379" y="147" type="curve" smooth="yes"/>
      <point x="443" y="147"/>
      <point x="503" y="149"/>
      <point x="557" y="173" type="curve"/>
      <point x="557" y="243" type="line"/>
      <point x="517" y="235"/>
      <point x="466" y="227"/>
      <point x="407" y="227" type="curve" smooth="yes"/>
      <point x="338" y="227"/>
      <point x="309" y="266"/>
      <point x="309" y="362" type="curve" smooth="yes"/>
      <point x="309" y="472"/>
      <point x="338" y="503"/>
      <point x="409" y="503" type="curve" smooth="yes"/>
      <point x="439" y="503"/>
      <point x="494" y="499"/>
      <point x="551" y="491" type="curve"/>
      <point x="551" y="561" type="line"/>
      <point x="497" y="578"/>
      <point x="418" y="583"/>
      <point x="380" y="583" type="curve" smooth="yes"/>
      <point x="284" y="583"/>
      <point x="221" y="526"/>
    </contour>
    <contour>
      <point x="130" y="368" type="curve" smooth="yes"/>
      <point x="130" y="598"/>
      <point x="215" y="652"/>
      <point x="310" y="652" type="curve" smooth="yes"/>
      <point x="525" y="652" type="line" smooth="yes"/>
      <point x="661" y="652"/>
      <point x="682" y="507"/>
      <point x="682" y="368" type="curve" smooth="yes"/>
      <point x="682" y="157"/>
      <point x="614" y="80"/>
      <point x="518" y="80" type="curve" smooth="yes"/>
      <point x="310" y="80" type="line" smooth="yes"/>
      <point x="185" y="80"/>
      <point x="129" y="210"/>
    </contour>
    <contour>
      <point x="43" y="368" type="curve" smooth="yes"/>
      <point x="43" y="170"/>
      <point x="119" y="0"/>
      <point x="310" y="0" type="curve" smooth="yes"/>
      <point x="525" y="0" type="line" smooth="yes"/>
      <point x="676" y="0"/>
      <point x="770" y="127"/>
      <point x="770" y="368" type="curve" smooth="yes"/>
      <point x="770" y="559"/>
      <point x="726" y="732"/>
      <point x="525" y="732" type="curve" smooth="yes"/>
      <point x="310" y="732" type="line" smooth="yes"/>
      <point x="91" y="732"/>
      <point x="43" y="554"/>
    </contour>
  </outline>
</glyph>
<glyph name="logicalnot" format="1">
  <advance width="609"/>
  <unicode hex="00AC"/>
  <note>
    GF Latin Plus glyph
  </note>
  <outline>
    <contour>
      <point x="528" y="176" type="line"/>
      <point x="528" y="467" type="line"/>
      <point x="409" y="467" type="line"/>
      <point x="409" y="176" type="line"/>
    </contour>
    <component base="minus" yOffset="120"/>
  </outline>
</glyph>
<glyph name="registered" format="1">
  <advance width="811"/>
  <unicode hex="00AE"/>
  <note>
    GF Latin Plus glyph
  </note>
  <outline>
    <contour>
      <point x="337" y="388" type="line"/>
      <point x="337" y="500" type="line"/>
      <point x="433" y="500" type="line" smooth="yes"/>
      <point x="460" y="500"/>
      <point x="478" y="488"/>
      <point x="478" y="444" type="curve" smooth="yes"/>
      <point x="478" y="395"/>
      <point x="461" y="388"/>
      <point x="433" y="388" type="curve" smooth="yes"/>
    </contour>
    <contour>
      <point x="250" y="153" type="line"/>
      <point x="337" y="153" type="line"/>
      <point x="337" y="324" type="line"/>
      <point x="406" y="323" type="line"/>
      <point x="492" y="153" type="line"/>
      <point x="580" y="153" type="line"/>
      <point x="489" y="320" type="line"/>
      <point x="531" y="333"/>
      <point x="566" y="358"/>
      <point x="566" y="445" type="curve" smooth="yes"/>
      <point x="566" y="555"/>
      <point x="500" y="580"/>
      <point x="434" y="580" type="curve" smooth="yes"/>
      <point x="250" y="580" type="line"/>
    </contour>
    <contour>
      <point x="130" y="368" type="curve" smooth="yes"/>
      <point x="130" y="598"/>
      <point x="215" y="652"/>
      <point x="310" y="652" type="curve" smooth="yes"/>
      <point x="525" y="652" type="line" smooth="yes"/>
      <point x="661" y="652"/>
      <point x="682" y="507"/>
      <point x="682" y="368" type="curve" smooth="yes"/>
      <point x="682" y="157"/>
      <point x="614" y="80"/>
      <point x="518" y="80" type="curve" smooth="yes"/>
      <point x="310" y="80" type="line" smooth="yes"/>
      <point x="185" y="80"/>
      <point x="129" y="210"/>
    </contour>
    <contour>
      <point x="43" y="368" type="curve" smooth="yes"/>
      <point x="43" y="170"/>
      <point x="119" y="0"/>
      <point x="310" y="0" type="curve" smooth="yes"/>
      <point x="525" y="0" type="line" smooth="yes"/>
      <point x="676" y="0"/>
      <point x="770" y="127"/>
      <point x="770" y="368" type="curve" smooth="yes"/>
      <point x="770" y="559"/>
      <point x="726" y="732"/>
      <point x="525" y="732" type="curve" smooth="yes"/>
      <point x="310" y="732" type="line" smooth="yes"/>
      <point x="91" y="732"/>
      <point x="43" y="554"/>
    </contour>
  </outline>
</glyph>
<glyph name="threesuperior" format="1">
  <advance width="452"/>
  <unicode hex="00B3"/>
  <note>
    GF Latin Plus glyph
  </note>
  <outline>
    <contour>
      <point x="48" y="705" type="line"/>
      <point x="193" y="705" type="line" smooth="yes"/>
      <point x="250" y="705"/>
      <point x="270" y="691"/>
      <point x="270" y="661" type="curve" smooth="yes"/>
      <point x="270" y="645" type="line" smooth="yes"/>
      <point x="270" y="619"/>
      <point x="248" y="610"/>
      <point x="207" y="607" type="curve" smooth="yes"/>
      <point x="86" y="599" type="line"/>
      <point x="86" y="503" type="line"/>
      <point x="212" y="497" type="line" smooth="yes"/>
      <point x="250" y="495"/>
      <point x="277" y="484"/>
      <point x="277" y="452" type="curve" smooth="yes"/>
      <point x="277" y="437" type="line" smooth="yes"/>
      <point x="277" y="406"/>
      <point x="253" y="394"/>
      <point x="196" y="394" type="curve" smooth="yes"/>
      <point x="39" y="394" type="line"/>
      <point x="39" y="293" type="line"/>
      <point x="98" y="283"/>
      <point x="163" y="276"/>
      <point x="239" y="276" type="curve" smooth="yes"/>
      <point x="342" y="276"/>
      <point x="405" y="326"/>
      <point x="405" y="417" type="curve" smooth="yes"/>
      <point x="405" y="441" type="line" smooth="yes"/>
      <point x="405" y="499"/>
      <point x="378" y="538"/>
      <point x="333" y="552" type="curve"/>
      <point x="376" y="565"/>
      <point x="398" y="598"/>
      <point x="398" y="651" type="curve" smooth="yes"/>
      <point x="398" y="689" type="line" smooth="yes"/>
      <point x="398" y="779"/>
      <point x="339" y="823"/>
      <point x="243" y="824" type="curve" smooth="yes"/>
      <point x="170" y="825"/>
      <point x="108" y="818"/>
      <point x="48" y="806" type="curve"/>
    </contour>
  </outline>
</glyph>
<glyph name="Thorn" format="1">
  <advance width="586"/>
  <unicode hex="00DE"/>
  <note>
    GF Latin Plus glyph
  </note>
  <outline>
    <contour>
      <point x="64" y="0" type="line"/>
      <point x="212" y="0" type="line"/>
      <point x="212" y="147" type="line"/>
      <point x="239" y="143"/>
      <point x="309" y="131"/>
      <point x="346" y="131" type="curve" smooth="yes"/>
      <point x="437" y="131"/>
      <point x="554" y="163"/>
      <point x="554" y="379" type="curve" smooth="yes"/>
      <point x="554" y="592"/>
      <point x="437" y="620"/>
      <point x="341" y="620" type="curve" smooth="yes"/>
      <point x="212" y="620" type="line"/>
      <point x="212" y="740" type="line"/>
      <point x="64" y="740" type="line"/>
    </contour>
    <contour>
      <point x="212" y="264" type="line"/>
      <point x="212" y="487" type="line"/>
      <point x="326" y="487" type="line" smooth="yes"/>
      <point x="374" y="487"/>
      <point x="405" y="457"/>
      <point x="405" y="378" type="curve" smooth="yes"/>
      <point x="405" y="296"/>
      <point x="376" y="264"/>
      <point x="324" y="264" type="curve" smooth="yes"/>
    </contour>
  </outline>
</glyph>
<glyph name="germandbls" format="1">
  <advance width="605"/>
  <unicode hex="00DF"/>
  <note>
    GF Latin Plus glyph
  </note>
  <outline>
    <contour>
      <point x="47" y="0" type="line"/>
      <point x="195" y="0" type="line"/>
      <point x="195" y="520" type="line" smooth="yes"/>
      <point x="195" y="607"/>
      <point x="227" y="646"/>
      <point x="301" y="646" type="curve" smooth="yes"/>
      <point x="364" y="646"/>
      <point x="400" y="624"/>
      <point x="400" y="564" type="curve" smooth="yes"/>
      <point x="400" y="487"/>
      <point x="295" y="437"/>
      <point x="295" y="337" type="curve" smooth="yes"/>
      <point x="295" y="220"/>
      <point x="446" y="219"/>
      <point x="446" y="162" type="curve" smooth="yes"/>
      <point x="446" y="150" type="line" smooth="yes"/>
      <point x="446" y="131"/>
      <point x="428" y="105"/>
      <point x="365" y="105" type="curve" smooth="yes"/>
      <point x="326" y="105"/>
      <point x="285" y="107"/>
      <point x="254" y="109" type="curve"/>
      <point x="254" y="9" type="line"/>
      <point x="285" y="0"/>
      <point x="344" y="-7"/>
      <point x="403" y="-7" type="curve" smooth="yes"/>
      <point x="480" y="-7"/>
      <point x="587" y="29"/>
      <point x="587" y="147" type="curve" smooth="yes"/>
      <point x="587" y="175" type="line" smooth="yes"/>
      <point x="587" y="301"/>
      <point x="436" y="306"/>
      <point x="436" y="364" type="curve" smooth="yes"/>
      <point x="436" y="415"/>
      <point x="541" y="463"/>
      <point x="541" y="573" type="curve" smooth="yes"/>
      <point x="541" y="684"/>
      <point x="473" y="765"/>
      <point x="302" y="765" type="curve" smooth="yes"/>
      <point x="124" y="765"/>
      <point x="47" y="665"/>
      <point x="47" y="535" type="curve" smooth="yes"/>
    </contour>
  </outline>
</glyph>
<glyph name="thorn" format="1">
  <advance width="585"/>
  <unicode hex="00FE"/>
  <note>
    GF Latin Plus glyph
  </note>
  <outline>
    <contour>
      <point x="205" y="141" type="curve"/>
      <point x="205" y="396" type="line"/>
      <point x="229" y="410"/>
      <point x="265" y="426"/>
      <point x="306" y="426" type="curve" smooth="yes"/>
      <point x="358" y="426"/>
      <point x="396" y="387"/>
      <point x="396" y="261" type="curve" smooth="yes"/>
      <point x="396" y="143"/>
      <point x="353" y="115"/>
      <point x="306" y="115" type="curve" smooth="yes"/>
      <point x="270" y="115"/>
      <point x="231" y="125"/>
    </contour>
    <contour>
      <point x="57" y="-237" type="line"/>
      <point x="205" y="-237" type="line"/>
      <point x="205" y="28" type="line"/>
      <point x="248" y="5"/>
      <point x="304" y="-7"/>
      <point x="354" y="-7" type="curve" smooth="yes"/>
      <point x="492" y="-7"/>
      <point x="544" y="95"/>
      <point x="544" y="268" type="curve" smooth="yes"/>
      <point x="544" y="440"/>
      <point x="480" y="545"/>
      <point x="354" y="545" type="curve" smooth="yes"/>
      <point x="292" y="545"/>
      <point x="243" y="516"/>
      <point x="205" y="486" type="curve"/>
      <point x="205" y="763" type="line"/>
      <point x="57" y="763" type="line"/>
    </contour>
  </outline>
</glyph>
<glyph name="oe" format="1">
  <advance width="876"/>
  <unicode hex="0153"/>
  <note>
    GF Latin Plus glyph
  </note>
  <outline>
    <contour>
      <point x="525" y="304" type="line"/>
      <point x="525" y="401"/>
      <point x="547" y="438"/>
      <point x="615" y="438" type="curve" smooth="yes"/>
      <point x="678" y="438"/>
      <point x="705" y="419"/>
      <point x="705" y="361" type="curve" smooth="yes"/>
      <point x="705" y="319"/>
      <point x="686" y="304"/>
      <point x="649" y="304" type="curve" smooth="yes"/>
    </contour>
    <contour>
      <point x="403" y="268" type="curve" smooth="yes"/>
      <point x="403" y="76"/>
      <point x="467" y="-5"/>
      <point x="610" y="-5" type="curve" smooth="yes"/>
      <point x="695" y="-5"/>
      <point x="763" y="6"/>
      <point x="818" y="18" type="curve"/>
      <point x="818" y="105" type="line"/>
      <point x="654" y="105" type="line" smooth="yes"/>
      <point x="564" y="105"/>
      <point x="529" y="135"/>
      <point x="526" y="216" type="curve"/>
      <point x="678" y="216" type="line" smooth="yes"/>
      <point x="766" y="216"/>
      <point x="836" y="255"/>
      <point x="836" y="345" type="curve" smooth="yes"/>
      <point x="836" y="507"/>
      <point x="773" y="545"/>
      <point x="614" y="545" type="curve" smooth="yes"/>
      <point x="456" y="545"/>
      <point x="403" y="460"/>
    </contour>
    <contour>
      <point x="189" y="270" type="curve" smooth="yes"/>
      <point x="189" y="418"/>
      <point x="218" y="434"/>
      <point x="287" y="434" type="curve" smooth="yes"/>
      <point x="357" y="434"/>
      <point x="386" y="418"/>
      <point x="386" y="270" type="curve" smooth="yes"/>
      <point x="386" y="122"/>
      <point x="357" y="106"/>
      <point x="287" y="106" type="curve" smooth="yes"/>
      <point x="218" y="106"/>
      <point x="189" y="122"/>
    </contour>
    <contour>
      <point x="41" y="270" type="curve" smooth="yes"/>
      <point x="41" y="62"/>
      <point x="109" y="-5"/>
      <point x="286" y="-5" type="curve" smooth="yes"/>
      <point x="450" y="-5"/>
      <point x="511" y="56"/>
      <point x="511" y="270" type="curve" smooth="yes"/>
      <point x="511" y="485"/>
      <point x="447" y="545"/>
      <point x="287" y="545" type="curve" smooth="yes"/>
      <point x="112" y="545"/>
      <point x="41" y="489"/>
    </contour>
  </outline>
</glyph>
<glyph name="Ohorn" format="1">
  <advance width="699"/>
  <unicode hex="01A0"/>
  <note>
    GF Latin Plus glyph
  </note>
  <outline>
    <contour>
      <point x="375" y="660" type="line"/>
      <point x="525" y="660" type="line" smooth="yes"/>
      <point x="612" y="660"/>
      <point x="672" y="723"/>
      <point x="672" y="850" type="curve"/>
      <point x="570" y="850" type="line"/>
      <point x="570" y="768"/>
      <point x="543" y="740"/>
      <point x="498" y="740" type="curve" smooth="yes"/>
      <point x="375" y="740" type="line"/>
    </contour>
    <component base="O"/>
    <contour>
      <point x="350" y="810" type="move" name="top"/>
    </contour>
    <contour>
      <point x="350" y="-150" type="move" name="bottom"/>
    </contour>
  </outline>
</glyph>
<glyph name="Uhorn" format="1">
  <advance width="686"/>
  <unicode hex="01AF"/>
  <note>
    GF Latin Plus glyph
  </note>
  <outline>
    <contour>
      <point x="499" y="660" type="line"/>
      <point x="574" y="660" type="line" smooth="yes"/>
      <point x="661" y="660"/>
      <point x="721" y="723"/>
      <point x="721" y="850" type="curve"/>
      <point x="618" y="850" type="line"/>
      <point x="618" y="768"/>
      <point x="592" y="740"/>
      <point x="547" y="740" type="curve" smooth="yes"/>
      <point x="499" y="740" type="line"/>
    </contour>
    <component base="U"/>
    <contour>
      <point x="334" y="810" type="move" name="top"/>
    </contour>
    <contour>
      <point x="334" y="-150" type="move" name="bottom"/>
    </contour>
  </outline>
</glyph>
<glyph name="bullet" format="1">
  <advance width="311"/>
  <unicode hex="2022"/>
  <note>
    GF Latin Plus glyph
  </note>
  <outline>
    <contour>
      <point x="66" y="322" type="line" smooth="yes"/>
      <point x="66" y="302"/>
      <point x="79" y="290"/>
      <point x="99" y="290" type="curve" smooth="yes"/>
      <point x="211" y="290" type="line" smooth="yes"/>
      <point x="231" y="290"/>
      <point x="246" y="298"/>
      <point x="246" y="322" type="curve" smooth="yes"/>
      <point x="246" y="440" type="line" smooth="yes"/>
      <point x="246" y="462"/>
      <point x="236" y="475"/>
      <point x="211" y="475" type="curve" smooth="yes"/>
      <point x="99" y="475" type="line" smooth="yes"/>
      <point x="77" y="475"/>
      <point x="66" y="461"/>
      <point x="66" y="440" type="curve" smooth="yes"/>
    </contour>
  </outline>
</glyph>
<glyph name="zerosuperior" format="1">
  <advance width="452"/>
  <unicode hex="2070"/>
  <outline>
    <contour>
      <point x="162" y="438" type="curve" smooth="yes"/>
      <point x="162" y="662" type="line" smooth="yes"/>
      <point x="162" y="698"/>
      <point x="183" y="711"/>
      <point x="208" y="711" type="curve" smooth="yes"/>
      <point x="246" y="711" type="line" smooth="yes"/>
      <point x="272" y="711"/>
      <point x="290" y="698"/>
      <point x="290" y="662" type="curve" smooth="yes"/>
      <point x="290" y="438" type="line" smooth="yes"/>
      <point x="290" y="404"/>
      <point x="273" y="389"/>
      <point x="246" y="389" type="curve" smooth="yes"/>
      <point x="208" y="389" type="line" smooth="yes"/>
      <point x="183" y="389"/>
      <point x="162" y="402"/>
    </contour>
    <contour>
      <point x="32" y="420" type="line" smooth="yes"/>
      <point x="32" y="328"/>
      <point x="82" y="276"/>
      <point x="180" y="276" type="curve" smooth="yes"/>
      <point x="277" y="276" type="line" smooth="yes"/>
      <point x="368" y="276"/>
      <point x="420" y="329"/>
      <point x="420" y="420" type="curve" smooth="yes"/>
      <point x="420" y="675" type="line" smooth="yes"/>
      <point x="420" y="770"/>
      <point x="371" y="824"/>
      <point x="278" y="824" type="curve" smooth="yes"/>
      <point x="181" y="824" type="line" smooth="yes"/>
      <point x="86" y="824"/>
      <point x="32" y="772"/>
      <point x="32" y="675" type="curve" smooth="yes"/>
    </contour>
  </outline>
</glyph>
<glyph name="eightsuperior" format="1">
  <advance width="452"/>
  <unicode hex="2078"/>
  <outline>
    <contour>
      <point x="165" y="638" type="curve" smooth="yes"/>
      <point x="165" y="680" type="line" smooth="yes"/>
      <point x="165" y="705"/>
      <point x="177" y="718"/>
      <point x="202" y="718" type="curve" smooth="yes"/>
      <point x="254" y="718" type="line" smooth="yes"/>
      <point x="276" y="718"/>
      <point x="288" y="706"/>
      <point x="288" y="680" type="curve" smooth="yes"/>
      <point x="288" y="638" type="line" smooth="yes"/>
      <point x="288" y="621"/>
      <point x="276" y="604"/>
      <point x="252" y="604" type="curve" smooth="yes"/>
      <point x="202" y="604" type="line" smooth="yes"/>
      <point x="178" y="604"/>
      <point x="165" y="619"/>
    </contour>
    <contour>
      <point x="158" y="421" type="curve" smooth="yes"/>
      <point x="158" y="468" type="line" smooth="yes"/>
      <point x="158" y="495"/>
      <point x="180" y="508"/>
      <point x="200" y="508" type="curve" smooth="yes"/>
      <point x="254" y="508" type="line" smooth="yes"/>
      <point x="284" y="508"/>
      <point x="296" y="494"/>
      <point x="296" y="468" type="curve" smooth="yes"/>
      <point x="296" y="421" type="line" smooth="yes"/>
      <point x="296" y="397"/>
      <point x="282" y="383"/>
      <point x="255" y="383" type="curve" smooth="yes"/>
      <point x="200" y="383" type="line" smooth="yes"/>
      <point x="174" y="383"/>
      <point x="158" y="396"/>
    </contour>
    <contour>
      <point x="35" y="398" type="line" smooth="yes"/>
      <point x="35" y="311"/>
      <point x="93" y="276"/>
      <point x="181" y="276" type="curve" smooth="yes"/>
      <point x="281" y="276" type="line" smooth="yes"/>
      <point x="370" y="276"/>
      <point x="419" y="311"/>
      <point x="419" y="398" type="curve" smooth="yes"/>
      <point x="419" y="471" type="line" smooth="yes"/>
      <point x="419" y="499"/>
      <point x="402" y="547"/>
      <point x="364" y="561" type="curve"/>
      <point x="394" y="573"/>
      <point x="410" y="610"/>
      <point x="410" y="650" type="curve" smooth="yes"/>
      <point x="410" y="712" type="line" smooth="yes"/>
      <point x="410" y="794"/>
      <point x="350" y="824"/>
      <point x="279" y="824" type="curve" smooth="yes"/>
      <point x="174" y="824" type="line" smooth="yes"/>
      <point x="104" y="824"/>
      <point x="42" y="794"/>
      <point x="42" y="712" type="curve" smooth="yes"/>
      <point x="42" y="650" type="line" smooth="yes"/>
      <point x="42" y="613"/>
      <point x="57" y="579"/>
      <point x="89" y="559" type="curve"/>
      <point x="56" y="549"/>
      <point x="35" y="509"/>
      <point x="35" y="470" type="curve" smooth="yes"/>
    </contour>
  </outline>
</glyph>
<glyph name="ninesuperior" format="1">
  <advance width="452"/>
  <unicode hex="2079"/>
  <outline>
    <contour>
      <point x="288" y="594" type="curve"/>
      <point x="217" y="594" type="line" smooth="yes"/>
      <point x="175" y="594"/>
      <point x="157" y="603"/>
      <point x="157" y="640" type="curve" smooth="yes"/>
      <point x="157" y="667" type="line" smooth="yes"/>
      <point x="157" y="701"/>
      <point x="176" y="711"/>
      <point x="202" y="711" type="curve" smooth="yes"/>
      <point x="231" y="711" type="line" smooth="yes"/>
      <point x="274" y="711"/>
      <point x="288" y="687"/>
    </contour>
    <contour>
      <point x="418" y="560" type="curve" smooth="yes"/>
      <point x="418" y="770"/>
      <point x="361" y="824"/>
      <point x="248" y="824" type="curve" smooth="yes"/>
      <point x="170" y="824" type="line" smooth="yes"/>
      <point x="87" y="824"/>
      <point x="31" y="786"/>
      <point x="31" y="694" type="curve" smooth="yes"/>
      <point x="31" y="615" type="line" smooth="yes"/>
      <point x="31" y="540"/>
      <point x="62" y="488"/>
      <point x="174" y="488" type="curve" smooth="yes"/>
      <point x="227" y="488"/>
      <point x="258" y="491"/>
      <point x="288" y="502" type="curve"/>
      <point x="288" y="428"/>
      <point x="261" y="388"/>
      <point x="191" y="388" type="curve" smooth="yes"/>
      <point x="64" y="388" type="line"/>
      <point x="64" y="289" type="line"/>
      <point x="103" y="280"/>
      <point x="154" y="276"/>
      <point x="205" y="276" type="curve" smooth="yes"/>
      <point x="340" y="276"/>
      <point x="418" y="342"/>
    </contour>
  </outline>
</glyph>
<glyph name="franc" format="1">
  <advance width="609"/>
  <unicode hex="20A3"/>
  <note>
    GF Latin Plus glyph
  </note>
  <outline>
    <contour>
      <point x="134" y="0" type="line"/>
      <point x="282" y="0" type="line"/>
      <point x="282" y="324" type="line"/>
      <point x="501" y="332" type="line"/>
      <point x="501" y="449" type="line"/>
      <point x="282" y="457" type="line"/>
      <point x="282" y="544" type="line" smooth="yes"/>
      <point x="282" y="578"/>
      <point x="302" y="603"/>
      <point x="344" y="603" type="curve" smooth="yes"/>
      <point x="548" y="603" type="line"/>
      <point x="548" y="727" type="line"/>
      <point x="483" y="736"/>
      <point x="337" y="740"/>
      <point x="303" y="740" type="curve" smooth="yes"/>
      <point x="224" y="741"/>
      <point x="134" y="704"/>
      <point x="134" y="578" type="curve" smooth="yes"/>
    </contour>
    <contour>
      <point x="58" y="120" type="line"/>
      <point x="134" y="112" type="line"/>
      <point x="282" y="112" type="line"/>
      <point x="481" y="120" type="line"/>
      <point x="481" y="222" type="line"/>
      <point x="282" y="230" type="line"/>
      <point x="134" y="230" type="line"/>
      <point x="58" y="222" type="line"/>
    </contour>
  </outline>
</glyph>
<glyph name="won" format="1">
  <advance width="609"/>
  <unicode hex="20A9"/>
  <note>
    GF Latin Plus glyph
  </note>
  <outline>
    <contour>
      <point x="40" y="740" type="line"/>
      <point x="94" y="0" type="line"/>
      <point x="224" y="0" type="line"/>
      <point x="297" y="367" type="line"/>
      <point x="383" y="0" type="line"/>
      <point x="512" y="0" type="line"/>
      <point x="564" y="740" type="line"/>
      <point x="433" y="740" type="line"/>
      <point x="401" y="293" type="line"/>
      <point x="334" y="603" type="line"/>
      <point x="271" y="603" type="line"/>
      <point x="202" y="293" type="line"/>
      <point x="171" y="740" type="line"/>
    </contour>
    <contour>
      <point x="5" y="468" type="line"/>
      <point x="117" y="468" type="line"/>
      <point x="117" y="543" type="line"/>
      <point x="5" y="543" type="line"/>
    </contour>
    <contour>
      <point x="510" y="468" type="line"/>
      <point x="601" y="468" type="line"/>
      <point x="601" y="543" type="line"/>
      <point x="503" y="543" type="line"/>
    </contour>
    <contour>
      <point x="5" y="200" type="line"/>
      <point x="170" y="200" type="line"/>
      <point x="148" y="275" type="line"/>
      <point x="5" y="275" type="line"/>
    </contour>
    <contour>
      <point x="455" y="200" type="line"/>
      <point x="601" y="200" type="line"/>
      <point x="601" y="275" type="line"/>
      <point x="455" y="275" type="line"/>
    </contour>
  </outline>
</glyph>
<glyph name="dong" format="1">
  <advance width="609"/>
  <unicode hex="20AB"/>
  <note>
    GF Latin Plus glyph
  </note>
  <outline>
    <contour>
      <point x="65" y="-44" type="line"/>
      <point x="555" y="-44" type="line"/>
      <point x="555" y="75" type="line"/>
      <point x="65" y="75" type="line"/>
    </contour>
    <contour>
      <point x="269" y="655" type="line"/>
      <point x="593" y="655" type="line"/>
      <point x="593" y="714" type="line"/>
      <point x="269" y="714" type="line"/>
    </contour>
    <contour>
      <point x="194" y="365" type="curve" smooth="yes"/>
      <point x="194" y="452"/>
      <point x="225" y="474"/>
      <point x="296" y="474" type="curve" smooth="yes"/>
      <point x="330" y="474"/>
      <point x="359" y="463"/>
      <point x="386" y="453" type="curve"/>
      <point x="386" y="292" type="line"/>
      <point x="363" y="279"/>
      <point x="331" y="263"/>
      <point x="290" y="263" type="curve" smooth="yes"/>
      <point x="223" y="263"/>
      <point x="194" y="285"/>
    </contour>
    <contour>
      <point x="46" y="358" type="curve" smooth="yes"/>
      <point x="46" y="203"/>
      <point x="112" y="143"/>
      <point x="238" y="143" type="curve" smooth="yes"/>
      <point x="292" y="143"/>
      <point x="351" y="169"/>
      <point x="386" y="200" type="curve"/>
      <point x="410" y="149" type="line"/>
      <point x="534" y="149" type="line"/>
      <point x="534" y="783" type="line"/>
      <point x="386" y="783" type="line"/>
      <point x="386" y="560" type="line"/>
      <point x="348" y="573"/>
      <point x="297" y="585"/>
      <point x="248" y="585" type="curve" smooth="yes"/>
      <point x="94" y="585"/>
      <point x="46" y="518"/>
    </contour>
  </outline>
</glyph>
<glyph name="guarani" format="1">
  <advance width="609"/>
  <unicode hex="20B2"/>
  <note>
    GF Latin Plus glyph
  </note>
  <outline>
    <contour>
      <point x="361" y="-88" type="line"/>
      <point x="361" y="793" type="line"/>
      <point x="294" y="793" type="line"/>
      <point x="294" y="-88" type="line"/>
    </contour>
    <contour>
      <point x="31" y="367" type="curve" smooth="yes"/>
      <point x="31" y="142"/>
      <point x="74" y="-6"/>
      <point x="259" y="-5" type="curve" smooth="yes"/>
      <point x="346" y="-5"/>
      <point x="424" y="26"/>
      <point x="463" y="50" type="curve"/>
      <point x="484" y="0" type="line"/>
      <point x="580" y="0" type="line"/>
      <point x="580" y="420" type="line"/>
      <point x="447" y="420" type="line"/>
      <point x="447" y="152" type="line"/>
      <point x="416" y="142"/>
      <point x="362" y="131"/>
      <point x="306" y="131" type="curve" smooth="yes"/>
      <point x="199" y="131"/>
      <point x="164" y="176"/>
      <point x="164" y="367" type="curve" smooth="yes"/>
      <point x="164" y="549"/>
      <point x="191" y="608"/>
      <point x="336" y="608" type="curve" smooth="yes"/>
      <point x="428" y="608"/>
      <point x="516" y="600"/>
      <point x="559" y="594" type="curve"/>
      <point x="559" y="709" type="line"/>
      <point x="483" y="728"/>
      <point x="411" y="741"/>
      <point x="309" y="741" type="curve" smooth="yes"/>
      <point x="81" y="741"/>
      <point x="31" y="602"/>
    </contour>
  </outline>
</glyph>
<glyph name="manat" format="1">
  <advance width="609"/>
  <unicode hex="20BC"/>
  <note>
    GF Latin Plus glyph
  </note>
  <outline>
    <contour>
      <point x="338" y="80" type="line"/>
      <point x="338" y="790" type="line"/>
      <point x="271" y="790" type="line"/>
      <point x="271" y="80" type="line"/>
    </contour>
    <contour>
      <point x="304" y="706" type="curve" smooth="yes"/>
      <point x="74" y="706"/>
      <point x="36" y="405"/>
      <point x="26" y="0" type="curve"/>
      <point x="159" y="0" type="line"/>
      <point x="169" y="279" type="line" smooth="yes"/>
      <point x="175" y="412"/>
      <point x="194" y="572"/>
      <point x="304" y="572" type="curve" smooth="yes"/>
      <point x="414" y="572"/>
      <point x="434" y="412"/>
      <point x="440" y="279" type="curve" smooth="yes"/>
      <point x="450" y="0" type="line"/>
      <point x="583" y="0" type="line"/>
      <point x="573" y="405"/>
      <point x="534" y="706"/>
    </contour>
  </outline>
</glyph>
<glyph name="emptyset" format="1">
  <advance width="609"/>
  <unicode hex="2205"/>
  <outline>
    <contour>
      <point x="559" y="616" type="line"/>
      <point x="6" y="-27" type="line"/>
      <point x="51" y="-72" type="line"/>
      <point x="603" y="572" type="line"/>
    </contour>
    <contour>
      <point x="203" y="221" type="curve" smooth="yes"/>
      <point x="203" y="314" type="line" smooth="yes"/>
      <point x="203" y="389"/>
      <point x="237" y="415"/>
      <point x="281" y="415" type="curve" smooth="yes"/>
      <point x="328" y="415" type="line" smooth="yes"/>
      <point x="372" y="415"/>
      <point x="406" y="389"/>
      <point x="406" y="314" type="curve" smooth="yes"/>
      <point x="406" y="221" type="line" smooth="yes"/>
      <point x="406" y="147"/>
      <point x="372" y="120"/>
      <point x="328" y="120" type="curve" smooth="yes"/>
      <point x="281" y="120" type="line" smooth="yes"/>
      <point x="237" y="120"/>
      <point x="203" y="147"/>
    </contour>
    <contour>
      <point x="55" y="226" type="line" smooth="yes"/>
      <point x="55" y="100"/>
      <point x="121" y="-6"/>
      <point x="270" y="-6" type="curve" smooth="yes"/>
      <point x="339" y="-6" type="line" smooth="yes"/>
      <point x="488" y="-6"/>
      <point x="554" y="100"/>
      <point x="554" y="226" type="curve" smooth="yes"/>
      <point x="554" y="310" type="line" smooth="yes"/>
      <point x="554" y="436"/>
      <point x="487" y="542"/>
      <point x="339" y="542" type="curve" smooth="yes"/>
      <point x="270" y="542" type="line" smooth="yes"/>
      <point x="122" y="542"/>
      <point x="55" y="436"/>
      <point x="55" y="310" type="curve" smooth="yes"/>
    </contour>
  </outline>
</glyph>
<glyph name="infinity" format="1">
  <advance width="763"/>
  <unicode hex="221E"/>
  <outline>
    <contour>
      <point x="448" y="341" type="curve"/>
      <point x="471" y="376"/>
      <point x="510" y="418"/>
      <point x="556" y="418" type="curve" smooth="yes"/>
      <point x="613" y="418"/>
      <point x="621" y="385"/>
      <point x="621" y="341" type="curve" smooth="yes"/>
      <point x="621" y="298"/>
      <point x="607" y="265"/>
      <point x="553" y="265" type="curve" smooth="yes"/>
      <point x="509" y="265"/>
      <point x="472" y="303"/>
    </contour>
    <contour>
      <point x="142" y="341" type="curve" smooth="yes"/>
      <point x="142" y="391"/>
      <point x="151" y="418"/>
      <point x="208" y="418" type="curve" smooth="yes"/>
      <point x="245" y="418"/>
      <point x="287" y="379"/>
      <point x="312" y="342" type="curve"/>
      <point x="292" y="311"/>
      <point x="257" y="265"/>
      <point x="207" y="265" type="curve" smooth="yes"/>
      <point x="157" y="265"/>
      <point x="142" y="293"/>
    </contour>
    <contour>
      <point x="39" y="341" type="curve" smooth="yes"/>
      <point x="39" y="249"/>
      <point x="72" y="169"/>
      <point x="198" y="169" type="curve" smooth="yes"/>
      <point x="278" y="169"/>
      <point x="332" y="198"/>
      <point x="377" y="273" type="curve"/>
      <point x="429" y="201"/>
      <point x="494" y="169"/>
      <point x="564" y="169" type="curve" smooth="yes"/>
      <point x="691" y="169"/>
      <point x="725" y="249"/>
      <point x="725" y="341" type="curve" smooth="yes"/>
      <point x="725" y="425"/>
      <point x="702" y="514"/>
      <point x="568" y="514" type="curve" smooth="yes"/>
      <point x="488" y="514"/>
      <point x="415" y="473"/>
      <point x="379" y="410" type="curve"/>
      <point x="334" y="470"/>
      <point x="275" y="514"/>
      <point x="198" y="514" type="curve" smooth="yes"/>
      <point x="61" y="514"/>
      <point x="39" y="428"/>
    </contour>
  </outline>
</glyph>
<glyph name="integral" format="1">
  <advance width="446"/>
  <unicode hex="222B"/>
  <outline>
    <contour>
      <point x="15" y="-92" type="line"/>
      <point x="15" y="-184" type="line"/>
      <point x="35" y="-194"/>
      <point x="80" y="-203"/>
      <point x="117" y="-203" type="curve" smooth="yes"/>
      <point x="251" y="-203"/>
      <point x="297" y="-103"/>
      <point x="297" y="30" type="curve" smooth="yes"/>
      <point x="297" y="583" type="line" smooth="yes"/>
      <point x="297" y="642"/>
      <point x="315" y="688"/>
      <point x="379" y="688" type="curve" smooth="yes"/>
      <point x="431" y="688" type="line"/>
      <point x="431" y="780" type="line"/>
      <point x="414" y="785"/>
      <point x="387" y="799"/>
      <point x="320" y="799" type="curve" smooth="yes"/>
      <point x="196" y="799"/>
      <point x="148" y="707"/>
      <point x="148" y="589" type="curve" smooth="yes"/>
      <point x="148" y="19" type="line" smooth="yes"/>
      <point x="148" y="-62"/>
      <point x="118" y="-92"/>
      <point x="68" y="-92" type="curve" smooth="yes"/>
    </contour>
  </outline>
</glyph>
<glyph name="approxequal" format="1">
  <advance width="609"/>
  <unicode hex="2248"/>
  <note>
    GF Latin Plus glyph
  </note>
  <outline>
    <contour>
      <point x="80" y="386" type="line"/>
      <point x="110" y="412"/>
      <point x="150" y="426"/>
      <point x="190" y="426" type="curve" smooth="yes"/>
      <point x="266" y="426"/>
      <point x="337" y="386"/>
      <point x="425" y="386" type="curve" smooth="yes"/>
      <point x="482" y="386"/>
      <point x="509" y="408"/>
      <point x="528" y="426" type="curve"/>
      <point x="528" y="546" type="line"/>
      <point x="507" y="526"/>
      <point x="473" y="506"/>
      <point x="418" y="506" type="curve" smooth="yes"/>
      <point x="329" y="506"/>
      <point x="269" y="546"/>
      <point x="183" y="546" type="curve" smooth="yes"/>
      <point x="143" y="546"/>
      <point x="108" y="531"/>
      <point x="80" y="506" type="curve"/>
    </contour>
    <contour>
      <point x="80" y="146" type="line"/>
      <point x="110" y="172"/>
      <point x="150" y="186"/>
      <point x="190" y="186" type="curve" smooth="yes"/>
      <point x="266" y="186"/>
      <point x="337" y="146"/>
      <point x="425" y="146" type="curve" smooth="yes"/>
      <point x="482" y="146"/>
      <point x="509" y="168"/>
      <point x="528" y="186" type="curve"/>
      <point x="528" y="306" type="line"/>
      <point x="507" y="286"/>
      <point x="473" y="266"/>
      <point x="418" y="266" type="curve" smooth="yes"/>
      <point x="329" y="266"/>
      <point x="269" y="306"/>
      <point x="183" y="306" type="curve" smooth="yes"/>
      <point x="143" y="306"/>
      <point x="108" y="291"/>
      <point x="80" y="266" type="curve"/>
    </contour>
  </outline>
</glyph>
<glyph name="f_f" format="1">
  <advance width="790"/>
  <unicode hex="FB00"/>
  <note>
    GF Latin Plus glyph
  </note>
  <outline>
    <contour>
      <point x="11" y="418" type="line"/>
      <point x="87" y="418" type="line"/>
      <point x="87" y="0" type="line"/>
      <point x="235" y="0" type="line"/>
      <point x="235" y="418" type="line"/>
      <point x="562" y="418" type="line"/>
      <point x="562" y="537" type="line"/>
      <point x="235" y="537" type="line"/>
      <point x="235" y="574" type="line" smooth="yes"/>
      <point x="235" y="624"/>
      <point x="251" y="648"/>
      <point x="302" y="648" type="curve" smooth="yes"/>
      <point x="328" y="648"/>
      <point x="364" y="647"/>
      <point x="385" y="645" type="curve"/>
      <point x="385" y="752" type="line"/>
      <point x="355" y="762"/>
      <point x="305" y="769"/>
      <point x="251" y="769" type="curve" smooth="yes"/>
      <point x="140" y="769"/>
      <point x="87" y="727"/>
      <point x="87" y="595" type="curve" smooth="yes"/>
      <point x="87" y="537" type="line"/>
      <point x="11" y="513" type="line"/>
    </contour>
    <component base="f" xOffset="395"/>
  </outline>
</glyph>
<glyph name="E.smcp" format="1">
  <advance width="505"/>
  <outline>
    <contour>
      <point x="59" y="118" type="line" smooth="yes"/>
      <point x="59" y="4"/>
      <point x="159" y="-4"/>
      <point x="210" y="-4" type="curve" smooth="yes"/>
      <point x="282" y="-4"/>
      <point x="399" y="1"/>
      <point x="462" y="8" type="curve"/>
      <point x="462" y="112" type="line"/>
      <point x="240" y="112" type="line" smooth="yes"/>
      <point x="218" y="112"/>
      <point x="200" y="123"/>
      <point x="200" y="155" type="curve" smooth="yes"/>
      <point x="200" y="222" type="line"/>
      <point x="423" y="230" type="line"/>
      <point x="423" y="329" type="line"/>
      <point x="200" y="336" type="line"/>
      <point x="200" y="407" type="line" smooth="yes"/>
      <point x="200" y="432"/>
      <point x="216" y="445"/>
      <point x="245" y="445" type="curve" smooth="yes"/>
      <point x="462" y="445" type="line"/>
      <point x="462" y="549" type="line"/>
      <point x="412" y="554"/>
      <point x="323" y="560"/>
      <point x="202" y="560" type="curve" smooth="yes"/>
      <point x="136" y="560"/>
      <point x="59" y="532"/>
      <point x="59" y="432" type="curve" smooth="yes"/>
    </contour>
    <contour>
      <point x="263" y="650" type="move" name="top"/>
    </contour>
    <contour>
      <point x="452" y="8" type="move" name="ogonek"/>
    </contour>
    <contour>
      <point x="282" y="-150" type="move" name="bottom"/>
    </contour>
  </outline>
</glyph>
<glyph name="M.salt.smcp" format="1">
  <advance width="740"/>
  <outline>
    <contour>
      <point x="43" y="0" type="line"/>
      <point x="179" y="0" type="line"/>
      <point x="201" y="418" type="line" smooth="yes"/>
      <point x="202" y="432"/>
      <point x="209" y="439"/>
      <point x="216" y="439" type="curve" smooth="yes"/>
      <point x="223" y="439"/>
      <point x="229" y="434"/>
      <point x="232" y="423" type="curve" smooth="yes"/>
      <point x="270" y="191" type="line" smooth="yes"/>
      <point x="277" y="127"/>
      <point x="333" y="103"/>
      <point x="378" y="103" type="curve" smooth="yes"/>
      <point x="425" y="103"/>
      <point x="471" y="126"/>
      <point x="481" y="191" type="curve" smooth="yes"/>
      <point x="523" y="422" type="line" smooth="yes"/>
      <point x="525" y="435"/>
      <point x="531" y="439"/>
      <point x="537" y="439" type="curve" smooth="yes"/>
      <point x="543" y="439"/>
      <point x="548" y="433"/>
      <point x="548" y="421" type="curve" smooth="yes"/>
      <point x="573" y="0" type="line"/>
      <point x="709" y="0" type="line"/>
      <point x="681" y="453" type="line" smooth="yes"/>
      <point x="677" y="544"/>
      <point x="614" y="571"/>
      <point x="556" y="571" type="curve" smooth="yes"/>
      <point x="494" y="571"/>
      <point x="429" y="551"/>
      <point x="421" y="455" type="curve" smooth="yes"/>
      <point x="394" y="295" type="line" smooth="yes"/>
      <point x="392" y="281"/>
      <point x="386" y="276"/>
      <point x="378" y="276" type="curve" smooth="yes"/>
      <point x="372" y="276"/>
      <point x="365" y="280"/>
      <point x="363" y="295" type="curve" smooth="yes"/>
      <point x="335" y="458" type="line" smooth="yes"/>
      <point x="331" y="551"/>
      <point x="260" y="572"/>
      <point x="198" y="572" type="curve" smooth="yes"/>
      <point x="138" y="572"/>
      <point x="74" y="545"/>
      <point x="69" y="451" type="curve" smooth="yes"/>
    </contour>
    <contour>
      <point x="384" y="650" type="move" name="top"/>
    </contour>
    <contour>
      <point x="370" y="-150" type="move" name="bottom"/>
    </contour>
  </outline>
</glyph>
<glyph name="N.salt" format="1">
  <advance width="790"/>
  <outline>
    <contour>
      <point x="69" y="0" type="line"/>
      <point x="218" y="0" type="line"/>
      <point x="218" y="569" type="line" smooth="yes"/>
      <point x="218" y="594"/>
      <point x="228" y="599"/>
      <point x="240" y="599" type="curve" smooth="yes"/>
      <point x="251" y="599"/>
      <point x="258" y="592"/>
      <point x="262" y="580" type="curve" smooth="yes"/>
      <point x="412" y="126" type="line" smooth="yes"/>
      <point x="440" y="39"/>
      <point x="480" y="-6"/>
      <point x="572" y="-6" type="curve" smooth="yes"/>
      <point x="665" y="-6"/>
      <point x="731" y="32"/>
      <point x="731" y="149" type="curve" smooth="yes"/>
      <point x="731" y="740" type="line"/>
      <point x="583" y="740" type="line"/>
      <point x="583" y="168" type="line" smooth="yes"/>
      <point x="583" y="147"/>
      <point x="573" y="142"/>
      <point x="562" y="142" type="curve" smooth="yes"/>
      <point x="550" y="142"/>
      <point x="543" y="148"/>
      <point x="538" y="161" type="curve" smooth="yes"/>
      <point x="391" y="609" type="line" smooth="yes"/>
      <point x="366" y="689"/>
      <point x="328" y="746"/>
      <point x="227" y="746" type="curve" smooth="yes"/>
      <point x="134" y="746"/>
      <point x="69" y="707"/>
      <point x="69" y="584" type="curve" smooth="yes"/>
    </contour>
    <contour>
      <point x="426" y="810" type="move" name="top"/>
    </contour>
    <contour>
      <point x="411" y="-150" type="move" name="bottom"/>
    </contour>
  </outline>
</glyph>
<glyph name="N.salt.smcp" format="1">
  <advance width="674"/>
  <outline>
    <contour>
      <point x="61" y="0" type="line"/>
      <point x="202" y="0" type="line"/>
      <point x="202" y="416" type="line" smooth="yes"/>
      <point x="202" y="429"/>
      <point x="208" y="434"/>
      <point x="217" y="434" type="curve" smooth="yes"/>
      <point x="224" y="434"/>
      <point x="230" y="430"/>
      <point x="233" y="423" type="curve" smooth="yes"/>
      <point x="340" y="108" type="line" smooth="yes"/>
      <point x="364" y="34"/>
      <point x="407" y="-5"/>
      <point x="490" y="-5" type="curve" smooth="yes"/>
      <point x="573" y="-5"/>
      <point x="632" y="26"/>
      <point x="632" y="124" type="curve" smooth="yes"/>
      <point x="632" y="560" type="line"/>
      <point x="491" y="560" type="line"/>
      <point x="491" y="144" type="line" smooth="yes"/>
      <point x="491" y="131"/>
      <point x="484" y="128"/>
      <point x="476" y="128" type="curve" smooth="yes"/>
      <point x="468" y="128"/>
      <point x="463" y="131"/>
      <point x="460" y="139" type="curve" smooth="yes"/>
      <point x="355" y="448" type="line" smooth="yes"/>
      <point x="334" y="515"/>
      <point x="293" y="564"/>
      <point x="201" y="564" type="curve" smooth="yes"/>
      <point x="118" y="564"/>
      <point x="61" y="531"/>
      <point x="61" y="429" type="curve" smooth="yes"/>
    </contour>
    <contour>
      <point x="346" y="650" type="move" name="top"/>
    </contour>
    <contour>
      <point x="346" y="-150" type="move" name="bottom"/>
    </contour>
  </outline>
</glyph>
<glyph name="Omega" format="1">
  <advance width="762"/>
  <outline>
    <contour>
      <point x="49" y="403" type="curve" smooth="yes"/>
      <point x="49" y="290"/>
      <point x="92" y="193"/>
      <point x="180" y="129" type="curve"/>
      <point x="42" y="120" type="line"/>
      <point x="42" y="0" type="line"/>
      <point x="319" y="0" type="line"/>
      <point x="319" y="129" type="line"/>
      <point x="233" y="208"/>
      <point x="197" y="284"/>
      <point x="197" y="389" type="curve" smooth="yes"/>
      <point x="197" y="495"/>
      <point x="233" y="606"/>
      <point x="381" y="606" type="curve" smooth="yes"/>
      <point x="524" y="606"/>
      <point x="561" y="494"/>
      <point x="561" y="390" type="curve" smooth="yes"/>
      <point x="561" y="292"/>
      <point x="526" y="200"/>
      <point x="448" y="129" type="curve"/>
      <point x="448" y="0" type="line"/>
      <point x="724" y="0" type="line"/>
      <point x="724" y="119" type="line"/>
      <point x="587" y="128" type="line"/>
      <point x="659" y="197"/>
      <point x="709" y="281"/>
      <point x="709" y="398" type="curve" smooth="yes"/>
      <point x="709" y="588"/>
      <point x="623" y="739"/>
      <point x="381" y="739" type="curve" smooth="yes"/>
      <point x="127" y="739"/>
      <point x="49" y="565"/>
    </contour>
  </outline>
</glyph>
<glyph name="P.smcp" format="1">
  <advance width="527"/>
  <outline>
    <contour>
      <point x="200" y="280" type="line"/>
      <point x="200" y="448" type="line"/>
      <point x="294" y="448" type="line" smooth="yes"/>
      <point x="329" y="448"/>
      <point x="351" y="422"/>
      <point x="351" y="365" type="curve" smooth="yes"/>
      <point x="351" y="307"/>
      <point x="331" y="280"/>
      <point x="293" y="280" type="curve" smooth="yes"/>
    </contour>
    <contour>
      <point x="59" y="0" type="line"/>
      <point x="200" y="0" type="line"/>
      <point x="200" y="174" type="line"/>
      <point x="225" y="170"/>
      <point x="283" y="160"/>
      <point x="323" y="160" type="curve" smooth="yes"/>
      <point x="397" y="160"/>
      <point x="492" y="185"/>
      <point x="492" y="363" type="curve" smooth="yes"/>
      <point x="492" y="538"/>
      <point x="395" y="560"/>
      <point x="315" y="560" type="curve" smooth="yes"/>
      <point x="59" y="560" type="line"/>
    </contour>
    <contour>
      <point x="260" y="650" type="move" name="top"/>
    </contour>
  </outline>
</glyph>
<glyph name="Q.smcp" format="1">
  <advance width="588"/>
  <outline>
    <contour>
      <point x="257" y="-34" type="line"/>
      <point x="259" y="-123"/>
      <point x="328" y="-161"/>
      <point x="411" y="-161" type="curve" smooth="yes"/>
      <point x="431" y="-161"/>
      <point x="452" y="-159"/>
      <point x="471" y="-156" type="curve"/>
      <point x="471" y="-59" type="line"/>
      <point x="453" y="-63"/>
      <point x="432" y="-67"/>
      <point x="410" y="-67" type="curve" smooth="yes"/>
      <point x="385" y="-67"/>
      <point x="360" y="-58"/>
      <point x="354" y="-34" type="curve"/>
    </contour>
    <component base="O.smcp"/>
  </outline>
</glyph>
<glyph name="Thorn.smcp" format="1">
  <advance width="501"/>
  <outline>
    <contour>
      <point x="59" y="0" type="line"/>
      <point x="200" y="0" type="line"/>
      <point x="200" y="105" type="line"/>
      <point x="220" y="101"/>
      <point x="266" y="91"/>
      <point x="297" y="91" type="curve" smooth="yes"/>
      <point x="372" y="91"/>
      <point x="467" y="115"/>
      <point x="467" y="285" type="curve" smooth="yes"/>
      <point x="467" y="454"/>
      <point x="369" y="474"/>
      <point x="290" y="474" type="curve" smooth="yes"/>
      <point x="200" y="474" type="line"/>
      <point x="200" y="560" type="line"/>
      <point x="59" y="560" type="line"/>
    </contour>
    <contour>
      <point x="200" y="211" type="line"/>
      <point x="200" y="355" type="line"/>
      <point x="276" y="355" type="line" smooth="yes"/>
      <point x="308" y="355"/>
      <point x="326" y="332"/>
      <point x="326" y="284" type="curve" smooth="yes"/>
      <point x="326" y="233"/>
      <point x="310" y="211"/>
      <point x="274" y="211" type="curve" smooth="yes"/>
    </contour>
  </outline>
</glyph>
<glyph name="U.smcp" format="1">
  <advance width="576"/>
  <outline>
    <contour>
      <point x="51" y="183" type="line" smooth="yes"/>
      <point x="51" y="29"/>
      <point x="156" y="-4"/>
      <point x="288" y="-4" type="curve" smooth="yes"/>
      <point x="419" y="-4"/>
      <point x="525" y="29"/>
      <point x="525" y="183" type="curve" smooth="yes"/>
      <point x="525" y="560" type="line"/>
      <point x="384" y="560" type="line"/>
      <point x="384" y="184" type="line" smooth="yes"/>
      <point x="384" y="136"/>
      <point x="349" y="115"/>
      <point x="288" y="115" type="curve" smooth="yes"/>
      <point x="227" y="115"/>
      <point x="192" y="136"/>
      <point x="192" y="184" type="curve" smooth="yes"/>
      <point x="192" y="560" type="line"/>
      <point x="51" y="560" type="line"/>
    </contour>
    <contour>
      <point x="287" y="650" type="move" name="top"/>
    </contour>
    <contour>
      <point x="350" y="0" type="move" name="ogonek"/>
    </contour>
    <contour>
      <point x="287" y="-150" type="move" name="bottom"/>
    </contour>
  </outline>
</glyph>
<glyph name="W.smcp" format="1">
  <advance width="817"/>
  <outline>
    <contour>
      <point x="20" y="560" type="line"/>
      <point x="158" y="0" type="line"/>
      <point x="300" y="0" type="line"/>
      <point x="409" y="370" type="line"/>
      <point x="517" y="0" type="line"/>
      <point x="659" y="0" type="line"/>
      <point x="797" y="560" type="line"/>
      <point x="644" y="560" type="line"/>
      <point x="570" y="169" type="line"/>
      <point x="465" y="560" type="line"/>
      <point x="353" y="560" type="line"/>
      <point x="247" y="169" type="line"/>
      <point x="173" y="560" type="line"/>
    </contour>
    <contour>
      <point x="408" y="650" type="move" name="top"/>
    </contour>
  </outline>
</glyph>
<glyph name="X.salt" format="1">
  <advance width="689"/>
  <outline>
    <contour>
      <point x="18" y="0" type="line"/>
      <point x="178" y="0" type="line"/>
      <point x="302" y="248" type="line" smooth="yes"/>
      <point x="320" y="285"/>
      <point x="331" y="328"/>
      <point x="331" y="372" type="curve" smooth="yes"/>
      <point x="331" y="417"/>
      <point x="318" y="461"/>
      <point x="299" y="497" type="curve" smooth="yes"/>
      <point x="170" y="740" type="line"/>
      <point x="17" y="740" type="line"/>
      <point x="154" y="463" type="line" smooth="yes"/>
      <point x="170" y="431"/>
      <point x="180" y="401"/>
      <point x="180" y="370" type="curve" smooth="yes"/>
      <point x="180" y="341"/>
      <point x="171" y="313"/>
      <point x="156" y="282" type="curve" smooth="yes"/>
    </contour>
    <contour>
      <point x="511" y="0" type="line"/>
      <point x="672" y="0" type="line"/>
      <point x="533" y="282" type="line" smooth="yes"/>
      <point x="518" y="313"/>
      <point x="510" y="341"/>
      <point x="510" y="370" type="curve" smooth="yes"/>
      <point x="510" y="401"/>
      <point x="521" y="431"/>
      <point x="537" y="463" type="curve" smooth="yes"/>
      <point x="672" y="740" type="line"/>
      <point x="519" y="740" type="line"/>
      <point x="392" y="497" type="line" smooth="yes"/>
      <point x="373" y="461"/>
      <point x="360" y="417"/>
      <point x="360" y="372" type="curve" smooth="yes"/>
      <point x="360" y="329"/>
      <point x="369" y="285"/>
      <point x="388" y="248" type="curve" smooth="yes"/>
    </contour>
    <contour>
      <point x="344" y="810" type="move" name="top"/>
    </contour>
    <contour>
      <point x="344" y="-150" type="move" name="bottom"/>
    </contour>
  </outline>
</glyph>
<glyph name="X.salt.smcp" format="1">
  <advance width="593"/>
  <outline>
    <contour>
      <point x="20" y="0" type="line"/>
      <point x="173" y="0" type="line"/>
      <point x="265" y="187" type="line" smooth="yes"/>
      <point x="278" y="214"/>
      <point x="287" y="248"/>
      <point x="287" y="281" type="curve" smooth="yes"/>
      <point x="287" y="316"/>
      <point x="279" y="349"/>
      <point x="264" y="376" type="curve" smooth="yes"/>
      <point x="165" y="560" type="line"/>
      <point x="20" y="560" type="line"/>
      <point x="125" y="346" type="line" smooth="yes"/>
      <point x="137" y="323"/>
      <point x="142" y="302"/>
      <point x="142" y="280" type="curve" smooth="yes"/>
      <point x="142" y="260"/>
      <point x="137" y="238"/>
      <point x="126" y="215" type="curve" smooth="yes"/>
    </contour>
    <contour>
      <point x="420" y="0" type="line"/>
      <point x="573" y="0" type="line"/>
      <point x="467" y="215" type="line" smooth="yes"/>
      <point x="456" y="238"/>
      <point x="450" y="260"/>
      <point x="450" y="280" type="curve" smooth="yes"/>
      <point x="450" y="302"/>
      <point x="458" y="323"/>
      <point x="468" y="346" type="curve" smooth="yes"/>
      <point x="573" y="560" type="line"/>
      <point x="428" y="560" type="line"/>
      <point x="330" y="376" type="line" smooth="yes"/>
      <point x="315" y="349"/>
      <point x="307" y="316"/>
      <point x="307" y="281" type="curve" smooth="yes"/>
      <point x="307" y="248"/>
      <point x="314" y="214"/>
      <point x="328" y="186" type="curve" smooth="yes"/>
    </contour>
    <contour>
      <point x="296" y="650" type="move" name="top"/>
    </contour>
    <contour>
      <point x="296" y="-150" type="move" name="bottom"/>
    </contour>
  </outline>
</glyph>
<glyph name="X.smcp" format="1">
  <advance width="568"/>
  <outline>
    <contour>
      <point x="23" y="0" type="line"/>
      <point x="178" y="0" type="line"/>
      <point x="295" y="199" type="line"/>
      <point x="223" y="311" type="line"/>
    </contour>
    <contour>
      <point x="271" y="353" type="line"/>
      <point x="343" y="242" type="line"/>
      <point x="548" y="560" type="line"/>
      <point x="392" y="560" type="line"/>
    </contour>
    <contour>
      <point x="20" y="560" type="line"/>
      <point x="389" y="0" type="line"/>
      <point x="545" y="0" type="line"/>
      <point x="175" y="560" type="line"/>
    </contour>
    <contour>
      <point x="283" y="650" type="move" name="top"/>
    </contour>
    <contour>
      <point x="283" y="-150" type="move" name="bottom"/>
    </contour>
  </outline>
</glyph>
<glyph name="Z.smcp" format="1">
  <advance width="488"/>
  <outline>
    <contour>
      <point x="41" y="0" type="line"/>
      <point x="447" y="0" type="line"/>
      <point x="447" y="120" type="line"/>
      <point x="220" y="120" type="line"/>
      <point x="447" y="462" type="line"/>
      <point x="447" y="560" type="line"/>
      <point x="41" y="560" type="line"/>
      <point x="41" y="440" type="line"/>
      <point x="268" y="440" type="line"/>
      <point x="41" y="98" type="line"/>
    </contour>
    <contour>
      <point x="239" y="650" type="move" name="top"/>
    </contour>
    <contour>
      <point x="239" y="-150" type="move" name="bottom"/>
    </contour>
  </outline>
</glyph>
<glyph name="a.salt" format="1">
  <advance width="537"/>
  <outline>
    <contour>
      <point x="182" y="154" type="curve" smooth="yes"/>
      <point x="182" y="176" type="line" smooth="yes"/>
      <point x="182" y="215"/>
      <point x="206" y="237"/>
      <point x="258" y="242" type="curve" smooth="yes"/>
      <point x="348" y="248" type="line"/>
      <point x="348" y="123" type="line"/>
      <point x="321" y="108"/>
      <point x="280" y="96"/>
      <point x="246" y="97" type="curve" smooth="yes"/>
      <point x="210" y="97"/>
      <point x="182" y="111"/>
    </contour>
    <contour>
      <point x="34" y="130" type="line" smooth="yes"/>
      <point x="34" y="45"/>
      <point x="93" y="-6"/>
      <point x="208" y="-6" type="curve" smooth="yes"/>
      <point x="235" y="-6" type="line" smooth="yes"/>
      <point x="332" y="-6"/>
      <point x="437" y="29"/>
      <point x="496" y="68" type="curve"/>
      <point x="496" y="365" type="line" smooth="yes"/>
      <point x="496" y="503"/>
      <point x="419" y="544"/>
      <point x="285" y="544" type="curve" smooth="yes"/>
      <point x="188" y="544"/>
      <point x="123" y="530"/>
      <point x="70" y="514" type="curve"/>
      <point x="70" y="428" type="line"/>
      <point x="231" y="428" type="line" smooth="yes"/>
      <point x="330" y="428"/>
      <point x="348" y="405"/>
      <point x="348" y="355" type="curve" smooth="yes"/>
      <point x="348" y="318" type="line"/>
      <point x="211" y="318" type="line" smooth="yes"/>
      <point x="89" y="318"/>
      <point x="34" y="260"/>
      <point x="34" y="178" type="curve" smooth="yes"/>
    </contour>
    <contour>
      <point x="273" y="650" type="move" name="top"/>
    </contour>
    <contour>
      <point x="297" y="0" type="move" name="ogonek"/>
    </contour>
    <contour>
      <point x="270" y="-150" type="move" name="bottom"/>
    </contour>
  </outline>
</glyph>
<glyph name="at.smcp" format="1">
  <advance width="733"/>
  <outline>
    <contour>
      <point x="312" y="212" type="curve" smooth="yes"/>
      <point x="312" y="224" type="line" smooth="yes"/>
      <point x="312" y="247"/>
      <point x="331" y="250"/>
      <point x="348" y="251" type="curve" smooth="yes"/>
      <point x="417" y="256" type="line"/>
      <point x="417" y="212" type="line"/>
      <point x="404" y="197"/>
      <point x="372" y="184"/>
      <point x="346" y="184" type="curve" smooth="yes"/>
      <point x="326" y="184"/>
      <point x="312" y="194"/>
    </contour>
    <contour>
      <point x="46" y="105" type="line" smooth="yes"/>
      <point x="46" y="-26"/>
      <point x="135" y="-69"/>
      <point x="230" y="-69" type="curve" smooth="yes"/>
      <point x="493" y="-69" type="line" smooth="yes"/>
      <point x="610" y="-69"/>
      <point x="677" y="-16"/>
      <point x="677" y="119" type="curve" smooth="yes"/>
      <point x="677" y="438" type="line" smooth="yes"/>
      <point x="677" y="586"/>
      <point x="569" y="638"/>
      <point x="478" y="638" type="curve" smooth="yes"/>
      <point x="408" y="638" type="line" smooth="yes"/>
      <point x="307" y="638"/>
      <point x="195" y="626"/>
      <point x="156" y="619" type="curve"/>
      <point x="156" y="539" type="line"/>
      <point x="478" y="539" type="line" smooth="yes"/>
      <point x="531" y="539"/>
      <point x="572" y="497"/>
      <point x="572" y="438" type="curve" smooth="yes"/>
      <point x="572" y="119" type="line" smooth="yes"/>
      <point x="572" y="65"/>
      <point x="553" y="30"/>
      <point x="486" y="30" type="curve" smooth="yes"/>
      <point x="230" y="30" type="line" smooth="yes"/>
      <point x="196" y="30"/>
      <point x="151" y="49"/>
      <point x="151" y="119" type="curve" smooth="yes"/>
      <point x="151" y="307" type="line" smooth="yes"/>
      <point x="151" y="370"/>
      <point x="189" y="379"/>
      <point x="230" y="379" type="curve" smooth="yes"/>
      <point x="375" y="379" type="line" smooth="yes"/>
      <point x="404" y="379"/>
      <point x="417" y="373"/>
      <point x="417" y="344" type="curve" smooth="yes"/>
      <point x="417" y="318" type="line"/>
      <point x="324" y="318" type="line" smooth="yes"/>
      <point x="246" y="318"/>
      <point x="200" y="292"/>
      <point x="200" y="220" type="curve" smooth="yes"/>
      <point x="200" y="194" type="line" smooth="yes"/>
      <point x="200" y="143"/>
      <point x="229" y="85"/>
      <point x="302" y="85" type="curve" smooth="yes"/>
      <point x="375" y="85"/>
      <point x="417" y="134"/>
      <point x="418" y="134" type="curve"/>
      <point x="436" y="92" type="line"/>
      <point x="522" y="92" type="line"/>
      <point x="522" y="353" type="line" smooth="yes"/>
      <point x="522" y="468"/>
      <point x="446" y="479"/>
      <point x="371" y="479" type="curve" smooth="yes"/>
      <point x="230" y="479" type="line" smooth="yes"/>
      <point x="90" y="479"/>
      <point x="46" y="402"/>
      <point x="46" y="315" type="curve" smooth="yes"/>
    </contour>
  </outline>
</glyph>
<glyph name="braceleft.smcp" format="1">
  <advance width="281"/>
  <outline>
    <contour>
      <point x="22" y="226" type="line"/>
      <point x="54" y="228"/>
      <point x="72" y="210"/>
      <point x="72" y="184" type="curve" smooth="yes"/>
      <point x="72" y="6" type="line" smooth="yes"/>
      <point x="72" y="-84"/>
      <point x="120" y="-124"/>
      <point x="258" y="-124" type="curve"/>
      <point x="258" y="-25" type="line"/>
      <point x="218" y="-25"/>
      <point x="213" y="1"/>
      <point x="213" y="54" type="curve" smooth="yes"/>
      <point x="213" y="210" type="line" smooth="yes"/>
      <point x="213" y="253"/>
      <point x="182" y="278"/>
      <point x="132" y="287" type="curve"/>
      <point x="182" y="291"/>
      <point x="214" y="311"/>
      <point x="214" y="365" type="curve" smooth="yes"/>
      <point x="214" y="476" type="line" smooth="yes"/>
      <point x="214" y="547"/>
      <point x="220" y="564"/>
      <point x="258" y="564" type="curve"/>
      <point x="258" y="671" type="line"/>
      <point x="130" y="671"/>
      <point x="73" y="619"/>
      <point x="73" y="530" type="curve" smooth="yes"/>
      <point x="73" y="389" type="line" smooth="yes"/>
      <point x="73" y="359"/>
      <point x="48" y="350"/>
      <point x="22" y="347" type="curve"/>
    </contour>
  </outline>
</glyph>
<glyph name="bracketleft.smcp" format="1">
  <advance width="298"/>
  <outline>
    <contour>
      <point x="56" y="40" type="line" smooth="yes"/>
      <point x="56" y="-32"/>
      <point x="77" y="-124"/>
      <point x="208" y="-124" type="curve" smooth="yes"/>
      <point x="277" y="-124" type="line"/>
      <point x="277" y="-18" type="line"/>
      <point x="251" y="-18" type="line" smooth="yes"/>
      <point x="217" y="-18"/>
      <point x="197" y="0"/>
      <point x="197" y="46" type="curve" smooth="yes"/>
      <point x="197" y="500" type="line" smooth="yes"/>
      <point x="197" y="549"/>
      <point x="218" y="564"/>
      <point x="251" y="564" type="curve" smooth="yes"/>
      <point x="277" y="564" type="line"/>
      <point x="277" y="671" type="line"/>
      <point x="208" y="671" type="line" smooth="yes"/>
      <point x="98" y="671"/>
      <point x="56" y="614"/>
      <point x="56" y="520" type="curve" smooth="yes"/>
    </contour>
  </outline>
</glyph>
<glyph name="bracketright.smcp" format="1">
  <advance width="298"/>
  <outline>
    <contour>
      <point x="22" y="-18" type="line"/>
      <point x="22" y="-124" type="line"/>
      <point x="91" y="-124" type="line" smooth="yes"/>
      <point x="222" y="-124"/>
      <point x="243" y="-32"/>
      <point x="243" y="40" type="curve" smooth="yes"/>
      <point x="243" y="520" type="line" smooth="yes"/>
      <point x="243" y="614"/>
      <point x="200" y="671"/>
      <point x="91" y="671" type="curve" smooth="yes"/>
      <point x="22" y="671" type="line"/>
      <point x="22" y="564" type="line"/>
      <point x="47" y="564" type="line" smooth="yes"/>
      <point x="81" y="564"/>
      <point x="102" y="549"/>
      <point x="102" y="500" type="curve" smooth="yes"/>
      <point x="102" y="46" type="line" smooth="yes"/>
      <point x="102" y="0"/>
      <point x="82" y="-18"/>
      <point x="47" y="-18" type="curve" smooth="yes"/>
    </contour>
  </outline>
</glyph>
<glyph name="brevecomb_gravecomb" format="1">
  <outline>
    <contour>
      <point x="-415" y="730" type="line"/>
      <point x="-415" y="646"/>
      <point x="-362" y="609"/>
      <point x="-276" y="609" type="curve" smooth="yes"/>
      <point x="-189" y="609"/>
      <point x="-135" y="645"/>
      <point x="-135" y="730" type="curve"/>
      <point x="-206" y="730" type="line"/>
      <point x="-206" y="685"/>
      <point x="-234" y="669"/>
      <point x="-276" y="669" type="curve" smooth="yes"/>
      <point x="-312" y="669"/>
      <point x="-346" y="683"/>
      <point x="-346" y="730" type="curve"/>
    </contour>
    <component base="gravecomb" xOffset="-22" yOffset="122"/>
    <contour>
      <point x="-269" y="650" type="move" name="_top"/>
    </contour>
  </outline>
</glyph>
<glyph name="c_k" format="1">
  <advance width="1036"/>
  <outline>
    <contour>
      <point x="539" y="0" type="line"/>
      <point x="687" y="0" type="line"/>
      <point x="687" y="188" type="line"/>
      <point x="741" y="243" type="line"/>
      <point x="885" y="0" type="line"/>
      <point x="1034" y="0" type="line"/>
      <point x="841" y="319" type="line"/>
      <point x="1018" y="537" type="line"/>
      <point x="868" y="537" type="line"/>
      <point x="687" y="331" type="line"/>
      <point x="687" y="763" type="line"/>
      <point x="539" y="763" type="line"/>
      <point x="539" y="215" type="line"/>
      <point x="460" y="156"/>
      <point x="377" y="106"/>
      <point x="298" y="106" type="curve" smooth="yes"/>
      <point x="224" y="106"/>
      <point x="189" y="132"/>
      <point x="189" y="267" type="curve" smooth="yes"/>
      <point x="189" y="403"/>
      <point x="224" y="435"/>
      <point x="316" y="435" type="curve" smooth="yes"/>
      <point x="457" y="435" type="line"/>
      <point x="457" y="520" type="line"/>
      <point x="392" y="538"/>
      <point x="335" y="545"/>
      <point x="270" y="545" type="curve" smooth="yes"/>
      <point x="124" y="545"/>
      <point x="41" y="485"/>
      <point x="41" y="266" type="curve" smooth="yes"/>
      <point x="41" y="54"/>
      <point x="130" y="-6"/>
      <point x="258" y="-6" type="curve" smooth="yes"/>
      <point x="363" y="-6"/>
      <point x="449" y="34"/>
      <point x="539" y="96" type="curve"/>
    </contour>
  </outline>
</glyph>
<glyph name="caroncomb.alt" format="1">
  <note>
    GF Latin Plus glyph
  </note>
  <outline>
    <contour>
      <point x="-49" y="582" type="line"/>
      <point x="68" y="582" type="line"/>
      <point x="76" y="719" type="line"/>
      <point x="76" y="783" type="line"/>
      <point x="-58" y="783" type="line"/>
      <point x="-58" y="719" type="line"/>
    </contour>
    <contour>
      <point x="-89" y="650" type="move" name="_altcaron"/>
    </contour>
  </outline>
</glyph>
<glyph name="circumflexcomb_gravecomb" format="1">
  <outline>
    <contour>
      <point x="-425" y="631" type="line"/>
      <point x="-338" y="631" type="line"/>
      <point x="-268" y="674" type="line"/>
      <point x="-203" y="631" type="line"/>
      <point x="-117" y="631" type="line"/>
      <point x="-215" y="740" type="line"/>
      <point x="-316" y="740" type="line"/>
    </contour>
    <contour>
      <point x="-448" y="716" type="line"/>
      <point x="-361" y="716" type="line"/>
      <point x="-407" y="841" type="line"/>
      <point x="-527" y="841" type="line"/>
    </contour>
    <contour>
      <point x="-269" y="650" type="move" name="_top"/>
    </contour>
  </outline>
</glyph>
<glyph name="commaturnedabovecomb" format="1">
  <note>
    GF Latin Plus glyph
  </note>
  <outline>
    <contour>
      <point x="-223" y="704" type="line"/>
      <point x="-223" y="764" type="line"/>
      <point x="-275" y="764" type="line" smooth="yes"/>
      <point x="-365" y="764"/>
      <point x="-391" y="722"/>
      <point x="-391" y="621" type="curve"/>
      <point x="-301" y="621" type="line"/>
      <point x="-302" y="678"/>
      <point x="-288" y="687"/>
      <point x="-251" y="696" type="curve" smooth="yes"/>
    </contour>
    <contour>
      <point x="-323" y="650" type="move" name="_top"/>
    </contour>
  </outline>
</glyph>
<glyph name="d.salt" format="1">
  <advance width="574"/>
  <outline>
    <contour>
      <point x="189" y="269" type="curve" smooth="yes"/>
      <point x="189" y="395"/>
      <point x="212" y="433"/>
      <point x="284" y="433" type="curve" smooth="yes"/>
      <point x="316" y="433"/>
      <point x="344" y="425"/>
      <point x="373" y="412" type="curve"/>
      <point x="373" y="127" type="line"/>
      <point x="366" y="121"/>
      <point x="298" y="112"/>
      <point x="278" y="112" type="curve" smooth="yes"/>
      <point x="212" y="112"/>
      <point x="189" y="151"/>
    </contour>
    <contour>
      <point x="40" y="261" type="curve" smooth="yes"/>
      <point x="40" y="69"/>
      <point x="107" y="-8"/>
      <point x="270" y="-8" type="curve" smooth="yes"/>
      <point x="372" y="-8"/>
      <point x="470" y="21"/>
      <point x="521" y="50" type="curve"/>
      <point x="521" y="763" type="line"/>
      <point x="373" y="763" type="line"/>
      <point x="373" y="519" type="line"/>
      <point x="333" y="534"/>
      <point x="278" y="545"/>
      <point x="237" y="545" type="curve" smooth="yes"/>
      <point x="81" y="545"/>
      <point x="40" y="449"/>
    </contour>
    <contour>
      <point x="542" y="650" type="move" name="altcaron"/>
    </contour>
    <contour>
      <point x="258" y="704" type="move" name="top"/>
    </contour>
    <contour>
      <point x="275" y="-150" type="move" name="bottom"/>
    </contour>
  </outline>
</glyph>
<glyph name="dblgravecomb.case" format="1">
  <note>
    GF Latin Plus glyph
  </note>
  <outline>
    <contour>
      <point x="-538" y="931" type="line"/>
      <point x="-423" y="791" type="line"/>
      <point x="-336" y="791" type="line"/>
      <point x="-418" y="931" type="line"/>
    </contour>
    <contour>
      <point x="-359" y="931" type="line"/>
      <point x="-245" y="791" type="line"/>
      <point x="-157" y="791" type="line"/>
      <point x="-240" y="931" type="line"/>
    </contour>
    <contour>
      <point x="-306" y="810" type="move" name="_top"/>
    </contour>
  </outline>
</glyph>
<glyph name="dieresisbelowcomb.case" format="1">
  <note>
    GF Latin Plus glyph
  </note>
  <outline>
    <contour>
      <point x="-435" y="-192" type="line" smooth="yes"/>
      <point x="-435" y="-205"/>
      <point x="-427" y="-213"/>
      <point x="-414" y="-213" type="curve" smooth="yes"/>
      <point x="-346" y="-213" type="line" smooth="yes"/>
      <point x="-334" y="-213"/>
      <point x="-326" y="-206"/>
      <point x="-326" y="-192" type="curve" smooth="yes"/>
      <point x="-326" y="-95" type="line" smooth="yes"/>
      <point x="-326" y="-83"/>
      <point x="-332" y="-73"/>
      <point x="-346" y="-73" type="curve" smooth="yes"/>
      <point x="-414" y="-73" type="line" smooth="yes"/>
      <point x="-428" y="-73"/>
      <point x="-435" y="-82"/>
      <point x="-435" y="-95" type="curve" smooth="yes"/>
    </contour>
    <contour>
      <point x="-223" y="-192" type="line" smooth="yes"/>
      <point x="-223" y="-205"/>
      <point x="-214" y="-213"/>
      <point x="-202" y="-213" type="curve" smooth="yes"/>
      <point x="-133" y="-213" type="line" smooth="yes"/>
      <point x="-121" y="-213"/>
      <point x="-113" y="-206"/>
      <point x="-113" y="-192" type="curve" smooth="yes"/>
      <point x="-113" y="-95" type="line" smooth="yes"/>
      <point x="-113" y="-83"/>
      <point x="-120" y="-73"/>
      <point x="-133" y="-73" type="curve" smooth="yes"/>
      <point x="-202" y="-73" type="line" smooth="yes"/>
      <point x="-216" y="-73"/>
      <point x="-223" y="-82"/>
      <point x="-223" y="-95" type="curve" smooth="yes"/>
    </contour>
    <contour>
      <point x="-269" y="-150" type="move" name="_bottom"/>
    </contour>
  </outline>
</glyph>
<glyph name="dieresisbelowcomb" format="1">
  <note>
    GF Latin Plus glyph
  </note>
  <outline>
    <contour>
      <point x="-434" y="-192" type="line" smooth="yes"/>
      <point x="-434" y="-205"/>
      <point x="-426" y="-213"/>
      <point x="-414" y="-213" type="curve" smooth="yes"/>
      <point x="-345" y="-213" type="line" smooth="yes"/>
      <point x="-333" y="-213"/>
      <point x="-325" y="-206"/>
      <point x="-325" y="-192" type="curve" smooth="yes"/>
      <point x="-325" y="-95" type="line" smooth="yes"/>
      <point x="-325" y="-83"/>
      <point x="-332" y="-73"/>
      <point x="-345" y="-73" type="curve" smooth="yes"/>
      <point x="-414" y="-73" type="line" smooth="yes"/>
      <point x="-428" y="-73"/>
      <point x="-434" y="-82"/>
      <point x="-434" y="-95" type="curve" smooth="yes"/>
    </contour>
    <contour>
      <point x="-222" y="-192" type="line" smooth="yes"/>
      <point x="-222" y="-205"/>
      <point x="-213" y="-213"/>
      <point x="-201" y="-213" type="curve" smooth="yes"/>
      <point x="-133" y="-213" type="line" smooth="yes"/>
      <point x="-120" y="-213"/>
      <point x="-113" y="-206"/>
      <point x="-113" y="-192" type="curve" smooth="yes"/>
      <point x="-113" y="-95" type="line" smooth="yes"/>
      <point x="-113" y="-83"/>
      <point x="-119" y="-73"/>
      <point x="-133" y="-73" type="curve" smooth="yes"/>
      <point x="-201" y="-73" type="line" smooth="yes"/>
      <point x="-215" y="-73"/>
      <point x="-222" y="-82"/>
      <point x="-222" y="-95" type="curve" smooth="yes"/>
    </contour>
    <contour>
      <point x="-269" y="-150" type="move" name="_bottom"/>
    </contour>
  </outline>
</glyph>
<glyph name="eight.oldstyle" format="1">
  <advance width="609"/>
  <outline>
    <contour>
      <point x="218" y="509" type="curve" smooth="yes"/>
      <point x="218" y="556" type="line" smooth="yes"/>
      <point x="218" y="607"/>
      <point x="239" y="620"/>
      <point x="281" y="620" type="curve" smooth="yes"/>
      <point x="338" y="620" type="line" smooth="yes"/>
      <point x="373" y="620"/>
      <point x="397" y="609"/>
      <point x="397" y="556" type="curve" smooth="yes"/>
      <point x="397" y="509" type="line" smooth="yes"/>
      <point x="397" y="470"/>
      <point x="385" y="441"/>
      <point x="336" y="441" type="curve" smooth="yes"/>
      <point x="281" y="441" type="line" smooth="yes"/>
      <point x="238" y="441"/>
      <point x="218" y="459"/>
    </contour>
    <contour>
      <point x="207" y="184" type="curve" smooth="yes"/>
      <point x="207" y="250" type="line" smooth="yes"/>
      <point x="207" y="294"/>
      <point x="245" y="315"/>
      <point x="281" y="315" type="curve" smooth="yes"/>
      <point x="338" y="315" type="line" smooth="yes"/>
      <point x="386" y="315"/>
      <point x="409" y="292"/>
      <point x="409" y="250" type="curve" smooth="yes"/>
      <point x="409" y="184" type="line" smooth="yes"/>
      <point x="409" y="144"/>
      <point x="393" y="121"/>
      <point x="338" y="121" type="curve" smooth="yes"/>
      <point x="281" y="121" type="line" smooth="yes"/>
      <point x="234" y="121"/>
      <point x="207" y="138"/>
    </contour>
    <contour>
      <point x="59" y="157" type="line" smooth="yes"/>
      <point x="59" y="26"/>
      <point x="151" y="-4"/>
      <point x="254" y="-4" type="curve" smooth="yes"/>
      <point x="375" y="-4" type="line" smooth="yes"/>
      <point x="476" y="-4"/>
      <point x="557" y="27"/>
      <point x="557" y="157" type="curve" smooth="yes"/>
      <point x="557" y="261" type="line" smooth="yes"/>
      <point x="557" y="305"/>
      <point x="543" y="374"/>
      <point x="476" y="389" type="curve"/>
      <point x="528" y="399"/>
      <point x="542" y="473"/>
      <point x="542" y="507" type="curve" smooth="yes"/>
      <point x="542" y="591" type="line" smooth="yes"/>
      <point x="542" y="704"/>
      <point x="467" y="746"/>
      <point x="373" y="746" type="curve" smooth="yes"/>
      <point x="247" y="746" type="line" smooth="yes"/>
      <point x="154" y="746"/>
      <point x="74" y="704"/>
      <point x="74" y="591" type="curve" smooth="yes"/>
      <point x="74" y="507" type="line" smooth="yes"/>
      <point x="74" y="454"/>
      <point x="80" y="407"/>
      <point x="141" y="377" type="curve"/>
      <point x="90" y="365"/>
      <point x="59" y="315"/>
      <point x="59" y="258" type="curve" smooth="yes"/>
    </contour>
  </outline>
</glyph>
<glyph name="eight.smcp" format="1">
  <advance width="522"/>
  <outline>
    <contour>
      <point x="192" y="374" type="curve" smooth="yes"/>
      <point x="192" y="412" type="line" smooth="yes"/>
      <point x="192" y="444"/>
      <point x="204" y="456"/>
      <point x="233" y="456" type="curve" smooth="yes"/>
      <point x="291" y="456" type="line" smooth="yes"/>
      <point x="314" y="456"/>
      <point x="330" y="445"/>
      <point x="330" y="412" type="curve" smooth="yes"/>
      <point x="330" y="374" type="line" smooth="yes"/>
      <point x="330" y="351"/>
      <point x="314" y="335"/>
      <point x="289" y="335" type="curve" smooth="yes"/>
      <point x="233" y="335" type="line" smooth="yes"/>
      <point x="205" y="335"/>
      <point x="192" y="349"/>
    </contour>
    <contour>
      <point x="184" y="148" type="curve" smooth="yes"/>
      <point x="184" y="196" type="line" smooth="yes"/>
      <point x="184" y="226"/>
      <point x="209" y="237"/>
      <point x="229" y="237" type="curve" smooth="yes"/>
      <point x="293" y="237" type="line" smooth="yes"/>
      <point x="324" y="237"/>
      <point x="337" y="225"/>
      <point x="337" y="196" type="curve" smooth="yes"/>
      <point x="337" y="148" type="line" smooth="yes"/>
      <point x="337" y="122"/>
      <point x="323" y="108"/>
      <point x="294" y="108" type="curve" smooth="yes"/>
      <point x="230" y="108" type="line" smooth="yes"/>
      <point x="203" y="108"/>
      <point x="184" y="121"/>
    </contour>
    <contour>
      <point x="50" y="122" type="line" smooth="yes"/>
      <point x="50" y="17"/>
      <point x="130" y="-4"/>
      <point x="212" y="-4" type="curve" smooth="yes"/>
      <point x="320" y="-4" type="line" smooth="yes"/>
      <point x="402" y="-4"/>
      <point x="471" y="17"/>
      <point x="471" y="122" type="curve" smooth="yes"/>
      <point x="471" y="198" type="line" smooth="yes"/>
      <point x="471" y="229"/>
      <point x="455" y="282"/>
      <point x="402" y="296" type="curve"/>
      <point x="452" y="303"/>
      <point x="459" y="362"/>
      <point x="459" y="384" type="curve" smooth="yes"/>
      <point x="459" y="448" type="line" smooth="yes"/>
      <point x="459" y="533"/>
      <point x="401" y="565"/>
      <point x="333" y="565" type="curve" smooth="yes"/>
      <point x="190" y="565" type="line" smooth="yes"/>
      <point x="122" y="565"/>
      <point x="62" y="533"/>
      <point x="62" y="448" type="curve" smooth="yes"/>
      <point x="62" y="384" type="line" smooth="yes"/>
      <point x="62" y="344"/>
      <point x="64" y="313"/>
      <point x="120" y="286" type="curve"/>
      <point x="79" y="275"/>
      <point x="50" y="236"/>
      <point x="50" y="198" type="curve" smooth="yes"/>
    </contour>
  </outline>
</glyph>
<glyph name="eight.tnum" format="1">
  <advance width="609"/>
  <outline>
    <contour>
      <point x="208" y="509" type="curve" smooth="yes"/>
      <point x="208" y="556" type="line" smooth="yes"/>
      <point x="208" y="607"/>
      <point x="227" y="620"/>
      <point x="270" y="620" type="curve" smooth="yes"/>
      <point x="344" y="620" type="line" smooth="yes"/>
      <point x="379" y="620"/>
      <point x="402" y="609"/>
      <point x="402" y="556" type="curve" smooth="yes"/>
      <point x="402" y="509" type="line" smooth="yes"/>
      <point x="402" y="470"/>
      <point x="391" y="441"/>
      <point x="342" y="441" type="curve" smooth="yes"/>
      <point x="269" y="441" type="line" smooth="yes"/>
      <point x="226" y="441"/>
      <point x="208" y="459"/>
    </contour>
    <contour>
      <point x="197" y="184" type="curve" smooth="yes"/>
      <point x="197" y="250" type="line" smooth="yes"/>
      <point x="197" y="294"/>
      <point x="234" y="315"/>
      <point x="269" y="315" type="curve" smooth="yes"/>
      <point x="343" y="315" type="line" smooth="yes"/>
      <point x="392" y="315"/>
      <point x="413" y="292"/>
      <point x="413" y="250" type="curve" smooth="yes"/>
      <point x="413" y="184" type="line" smooth="yes"/>
      <point x="413" y="144"/>
      <point x="399" y="121"/>
      <point x="344" y="121" type="curve" smooth="yes"/>
      <point x="270" y="121" type="line" smooth="yes"/>
      <point x="223" y="121"/>
      <point x="197" y="138"/>
    </contour>
    <contour>
      <point x="49" y="157" type="line" smooth="yes"/>
      <point x="49" y="26"/>
      <point x="141" y="-4"/>
      <point x="244" y="-4" type="curve" smooth="yes"/>
      <point x="379" y="-4" type="line" smooth="yes"/>
      <point x="480" y="-4"/>
      <point x="561" y="27"/>
      <point x="561" y="157" type="curve" smooth="yes"/>
      <point x="561" y="261" type="line" smooth="yes"/>
      <point x="561" y="305"/>
      <point x="547" y="374"/>
      <point x="481" y="389" type="curve"/>
      <point x="533" y="399"/>
      <point x="547" y="473"/>
      <point x="547" y="507" type="curve" smooth="yes"/>
      <point x="547" y="591" type="line" smooth="yes"/>
      <point x="547" y="704"/>
      <point x="471" y="746"/>
      <point x="377" y="746" type="curve" smooth="yes"/>
      <point x="237" y="746" type="line" smooth="yes"/>
      <point x="143" y="746"/>
      <point x="63" y="704"/>
      <point x="63" y="591" type="curve" smooth="yes"/>
      <point x="63" y="507" type="line" smooth="yes"/>
      <point x="63" y="454"/>
      <point x="70" y="407"/>
      <point x="131" y="377" type="curve"/>
      <point x="80" y="365"/>
      <point x="49" y="315"/>
      <point x="49" y="258" type="curve" smooth="yes"/>
    </contour>
  </outline>
</glyph>
<glyph name="euro.smcp" format="1">
  <advance width="511"/>
  <outline>
    <contour>
      <point x="22" y="303" type="line"/>
      <point x="82" y="298" type="line"/>
      <point x="194" y="298" type="line"/>
      <point x="407" y="303" type="line"/>
      <point x="407" y="362" type="line"/>
      <point x="193" y="368" type="line"/>
      <point x="89" y="368" type="line"/>
      <point x="22" y="361" type="line"/>
    </contour>
    <contour>
      <point x="22" y="195" type="line"/>
      <point x="89" y="188" type="line"/>
      <point x="193" y="188" type="line"/>
      <point x="407" y="194" type="line"/>
      <point x="407" y="254" type="line"/>
      <point x="194" y="260" type="line"/>
      <point x="82" y="260" type="line"/>
      <point x="22" y="255" type="line"/>
    </contour>
    <component base="C.smcp" xOffset="21"/>
  </outline>
</glyph>
<glyph name="f_t" format="1">
  <advance width="781"/>
  <outline>
    <contour>
      <point x="18" y="418" type="line"/>
      <point x="94" y="418" type="line"/>
      <point x="94" y="0" type="line"/>
      <point x="243" y="0" type="line"/>
      <point x="243" y="418" type="line"/>
      <point x="558" y="418" type="line"/>
      <point x="558" y="537" type="line"/>
      <point x="243" y="537" type="line"/>
      <point x="243" y="581" type="line" smooth="yes"/>
      <point x="243" y="628"/>
      <point x="256" y="648"/>
      <point x="302" y="648" type="curve" smooth="yes"/>
      <point x="384" y="648" type="line"/>
      <point x="384" y="754" type="line"/>
      <point x="359" y="761"/>
      <point x="319" y="769"/>
      <point x="273" y="769" type="curve" smooth="yes"/>
      <point x="145" y="769"/>
      <point x="94" y="709"/>
      <point x="94" y="573" type="curve" smooth="yes"/>
      <point x="94" y="537" type="line"/>
      <point x="18" y="513" type="line"/>
    </contour>
    <component base="t" xOffset="393"/>
  </outline>
</glyph>
<glyph name="five.tnum" format="1">
  <advance width="609"/>
  <outline>
    <contour>
      <point x="72" y="11" type="line"/>
      <point x="151" y="3"/>
      <point x="246" y="-5"/>
      <point x="327" y="-5" type="curve" smooth="yes"/>
      <point x="488" y="-5"/>
      <point x="576" y="51"/>
      <point x="576" y="181" type="curve" smooth="yes"/>
      <point x="576" y="290" type="line" smooth="yes"/>
      <point x="576" y="388"/>
      <point x="520" y="464"/>
      <point x="404" y="464" type="curve" smooth="yes"/>
      <point x="323" y="464" type="line" smooth="yes"/>
      <point x="279" y="464"/>
      <point x="242" y="452"/>
      <point x="222" y="431" type="curve"/>
      <point x="230" y="607" type="line"/>
      <point x="548" y="607" type="line"/>
      <point x="548" y="740" type="line"/>
      <point x="103" y="740" type="line"/>
      <point x="82" y="284" type="line"/>
      <point x="222" y="284" type="line"/>
      <point x="228" y="321"/>
      <point x="250" y="339"/>
      <point x="293" y="339" type="curve" smooth="yes"/>
      <point x="351" y="339" type="line" smooth="yes"/>
      <point x="405" y="339"/>
      <point x="428" y="310"/>
      <point x="428" y="263" type="curve" smooth="yes"/>
      <point x="428" y="212" type="line" smooth="yes"/>
      <point x="428" y="170"/>
      <point x="406" y="128"/>
      <point x="333" y="128" type="curve" smooth="yes"/>
      <point x="72" y="128" type="line"/>
    </contour>
  </outline>
</glyph>
<glyph name="four.smcp" format="1">
  <advance width="527"/>
  <outline>
    <contour>
      <point x="29" y="169" type="line"/>
      <point x="55" y="110" type="line"/>
      <point x="307" y="110" type="line"/>
      <point x="307" y="0" type="line"/>
      <point x="448" y="0" type="line"/>
      <point x="448" y="110" type="line"/>
      <point x="500" y="130" type="line"/>
      <point x="500" y="222" type="line"/>
      <point x="448" y="222" type="line"/>
      <point x="448" y="384" type="line"/>
      <point x="338" y="384" type="line"/>
      <point x="307" y="295" type="line"/>
      <point x="307" y="222" type="line"/>
      <point x="197" y="222" type="line"/>
      <point x="346" y="560" type="line"/>
      <point x="202" y="560" type="line"/>
    </contour>
  </outline>
</glyph>
<glyph name="four.tnum" format="1">
  <advance width="609"/>
  <outline>
    <contour>
      <point x="20" y="227" type="line"/>
      <point x="47" y="157" type="line"/>
      <point x="371" y="157" type="line"/>
      <point x="371" y="1" type="line"/>
      <point x="519" y="1" type="line"/>
      <point x="519" y="157" type="line"/>
      <point x="596" y="181" type="line"/>
      <point x="596" y="283" type="line"/>
      <point x="519" y="283" type="line"/>
      <point x="519" y="512" type="line"/>
      <point x="400" y="512" type="line"/>
      <point x="371" y="427" type="line"/>
      <point x="371" y="283" type="line"/>
      <point x="195" y="283" type="line"/>
      <point x="411" y="740" type="line"/>
      <point x="259" y="740" type="line"/>
    </contour>
  </outline>
</glyph>
<glyph name="franc.smcp" format="1">
  <advance width="511"/>
  <outline>
    <contour>
      <point x="115" y="0" type="line"/>
      <point x="256" y="0" type="line"/>
      <point x="256" y="238" type="line"/>
      <point x="416" y="242" type="line"/>
      <point x="416" y="347" type="line"/>
      <point x="256" y="352" type="line"/>
      <point x="256" y="400" type="line" smooth="yes"/>
      <point x="256" y="420"/>
      <point x="268" y="437"/>
      <point x="298" y="437" type="curve" smooth="yes"/>
      <point x="455" y="437" type="line"/>
      <point x="455" y="548" type="line"/>
      <point x="391" y="556"/>
      <point x="291" y="560"/>
      <point x="258" y="560" type="curve" smooth="yes"/>
      <point x="192" y="560"/>
      <point x="115" y="532"/>
      <point x="115" y="432" type="curve" smooth="yes"/>
    </contour>
    <contour>
      <point x="57" y="83" type="line"/>
      <point x="115" y="79" type="line"/>
      <point x="256" y="79" type="line"/>
      <point x="395" y="83" type="line"/>
      <point x="395" y="175" type="line"/>
      <point x="256" y="179" type="line"/>
      <point x="115" y="179" type="line"/>
      <point x="57" y="175" type="line"/>
    </contour>
  </outline>
</glyph>
<glyph name="guarani.smcp" format="1">
  <advance width="511"/>
  <outline>
    <contour>
      <point x="302" y="-63" type="line"/>
      <point x="302" y="599" type="line"/>
      <point x="241" y="599" type="line"/>
      <point x="241" y="-63" type="line"/>
    </contour>
    <contour>
      <point x="29" y="279" type="curve" smooth="yes"/>
      <point x="29" y="117"/>
      <point x="62" y="-4"/>
      <point x="209" y="-4" type="curve" smooth="yes"/>
      <point x="280" y="-4"/>
      <point x="342" y="20"/>
      <point x="370" y="37" type="curve"/>
      <point x="390" y="0" type="line"/>
      <point x="481" y="0" type="line"/>
      <point x="481" y="327" type="line"/>
      <point x="361" y="327" type="line"/>
      <point x="361" y="129" type="line"/>
      <point x="342" y="124"/>
      <point x="302" y="119"/>
      <point x="256" y="119" type="curve" smooth="yes"/>
      <point x="182" y="119"/>
      <point x="156" y="146"/>
      <point x="156" y="278" type="curve" smooth="yes"/>
      <point x="156" y="406"/>
      <point x="173" y="444"/>
      <point x="284" y="444" type="curve" smooth="yes"/>
      <point x="358" y="444"/>
      <point x="426" y="439"/>
      <point x="461" y="434" type="curve"/>
      <point x="461" y="537" type="line"/>
      <point x="397" y="553"/>
      <point x="347" y="564"/>
      <point x="257" y="564" type="curve" smooth="yes"/>
      <point x="67" y="564"/>
      <point x="29" y="453"/>
    </contour>
  </outline>
</glyph>
<glyph name="hookabovecomb" format="1">
  <note>
    GF Latin Plus glyph
  </note>
  <outline>
    <contour>
      <point x="-364" y="721" type="line"/>
      <point x="-353" y="724"/>
      <point x="-342" y="727"/>
      <point x="-331" y="727" type="curve" smooth="yes"/>
      <point x="-306" y="727"/>
      <point x="-298" y="716"/>
      <point x="-298" y="699" type="curve" smooth="yes"/>
      <point x="-298" y="684"/>
      <point x="-306" y="668"/>
      <point x="-338" y="659" type="curve"/>
      <point x="-338" y="594" type="line"/>
      <point x="-256" y="617"/>
      <point x="-220" y="651"/>
      <point x="-220" y="704" type="curve" smooth="yes"/>
      <point x="-220" y="756"/>
      <point x="-250" y="787"/>
      <point x="-312" y="787" type="curve" smooth="yes"/>
      <point x="-332" y="787"/>
      <point x="-349" y="784"/>
      <point x="-364" y="779" type="curve"/>
    </contour>
    <contour>
      <point x="-310" y="650" type="move" name="_top"/>
    </contour>
  </outline>
</glyph>
<glyph name="j.superior" format="1">
  <advance width="203"/>
  <outline>
    <contour>
      <point x="34" y="741" type="line" smooth="yes"/>
      <point x="34" y="731"/>
      <point x="41" y="725"/>
      <point x="51" y="725" type="curve" smooth="yes"/>
      <point x="152" y="725" type="line" smooth="yes"/>
      <point x="162" y="725"/>
      <point x="168" y="731"/>
      <point x="168" y="741" type="curve" smooth="yes"/>
      <point x="168" y="817" type="line" smooth="yes"/>
      <point x="168" y="827"/>
      <point x="163" y="834"/>
      <point x="152" y="834" type="curve" smooth="yes"/>
      <point x="51" y="834" type="line" smooth="yes"/>
      <point x="40" y="834"/>
      <point x="34" y="828"/>
      <point x="34" y="817" type="curve" smooth="yes"/>
    </contour>
    <contour>
      <point x="36" y="95" type="line"/>
      <point x="128" y="95" type="line"/>
      <point x="153" y="162"/>
      <point x="167" y="258"/>
      <point x="167" y="342" type="curve" smooth="yes"/>
      <point x="167" y="672" type="line"/>
      <point x="36" y="672" type="line"/>
    </contour>
  </outline>
</glyph>
<glyph name="kip.smcp" format="1">
  <advance width="511"/>
  <outline>
    <contour>
      <point x="21" y="214" type="line"/>
      <point x="472" y="214" type="line"/>
      <point x="472" y="340" type="line"/>
      <point x="21" y="340" type="line"/>
    </contour>
    <contour>
      <point x="61" y="0" type="line"/>
      <point x="202" y="0" type="line"/>
      <point x="202" y="217" type="line"/>
      <point x="253" y="217" type="line"/>
      <point x="343" y="0" type="line"/>
      <point x="491" y="0" type="line"/>
      <point x="363" y="279" type="line"/>
      <point x="485" y="560" type="line"/>
      <point x="337" y="560" type="line"/>
      <point x="253" y="337" type="line"/>
      <point x="202" y="337" type="line"/>
      <point x="202" y="560" type="line"/>
      <point x="61" y="560" type="line"/>
    </contour>
  </outline>
</glyph>
<glyph name="l.superior" format="1">
  <advance width="238"/>
  <outline>
    <contour>
      <point x="36" y="394" type="line" smooth="yes"/>
      <point x="36" y="316"/>
      <point x="79" y="278"/>
      <point x="170" y="278" type="curve" smooth="yes"/>
      <point x="229" y="278" type="line"/>
      <point x="229" y="370" type="line"/>
      <point x="203" y="373" type="line" smooth="yes"/>
      <point x="177" y="377"/>
      <point x="167" y="390"/>
      <point x="167" y="426" type="curve" smooth="yes"/>
      <point x="167" y="850" type="line"/>
      <point x="36" y="850" type="line"/>
    </contour>
    <contour>
      <point x="182" y="753" type="move" name="altcaron"/>
    </contour>
    <contour>
      <point x="101" y="903" type="move" name="top"/>
    </contour>
    <contour>
      <point x="143" y="170" type="move" name="bottom"/>
    </contour>
  </outline>
</glyph>
<glyph name="lira.smcp" format="1">
  <advance width="511"/>
  <outline>
    <contour>
      <point x="57" y="0" type="line"/>
      <point x="464" y="0" type="line"/>
      <point x="464" y="120" type="line"/>
      <point x="267" y="120" type="line"/>
      <point x="267" y="182" type="line"/>
      <point x="401" y="184" type="line"/>
      <point x="401" y="243" type="line"/>
      <point x="267" y="248" type="line"/>
      <point x="267" y="282" type="line"/>
      <point x="401" y="285" type="line"/>
      <point x="401" y="344" type="line"/>
      <point x="267" y="349" type="line"/>
      <point x="267" y="383" type="line" smooth="yes"/>
      <point x="267" y="432"/>
      <point x="285" y="446"/>
      <point x="334" y="446" type="curve" smooth="yes"/>
      <point x="464" y="446" type="line"/>
      <point x="464" y="553" type="line"/>
      <point x="433" y="558"/>
      <point x="385" y="564"/>
      <point x="328" y="564" type="curve" smooth="yes"/>
      <point x="185" y="564"/>
      <point x="126" y="512"/>
      <point x="126" y="382" type="curve" smooth="yes"/>
      <point x="126" y="349" type="line"/>
      <point x="57" y="344" type="line"/>
      <point x="57" y="285" type="line"/>
      <point x="126" y="282" type="line"/>
      <point x="126" y="254" type="line"/>
      <point x="58" y="249" type="line"/>
      <point x="58" y="190" type="line"/>
      <point x="126" y="188" type="line"/>
      <point x="126" y="120" type="line"/>
      <point x="57" y="102" type="line"/>
    </contour>
  </outline>
</glyph>
<glyph name="m.superior" format="1">
  <advance width="686"/>
  <outline>
    <contour>
      <point x="36" y="280" type="line"/>
      <point x="167" y="280" type="line"/>
      <point x="167" y="540" type="line"/>
      <point x="184" y="554"/>
      <point x="207" y="565"/>
      <point x="233" y="565" type="curve" smooth="yes"/>
      <point x="261" y="565"/>
      <point x="279" y="549"/>
      <point x="279" y="519" type="curve" smooth="yes"/>
      <point x="279" y="280" type="line"/>
      <point x="409" y="280" type="line"/>
      <point x="409" y="516" type="line" smooth="yes"/>
      <point x="409" y="524"/>
      <point x="408" y="532"/>
      <point x="408" y="539" type="curve"/>
      <point x="425" y="553"/>
      <point x="451" y="565"/>
      <point x="475" y="565" type="curve" smooth="yes"/>
      <point x="503" y="565"/>
      <point x="521" y="549"/>
      <point x="521" y="519" type="curve" smooth="yes"/>
      <point x="521" y="280" type="line"/>
      <point x="651" y="280" type="line"/>
      <point x="651" y="530" type="line" smooth="yes"/>
      <point x="651" y="622"/>
      <point x="624" y="678"/>
      <point x="524" y="678" type="curve" smooth="yes"/>
      <point x="475" y="678"/>
      <point x="425" y="648"/>
      <point x="393" y="625" type="curve"/>
      <point x="375" y="655"/>
      <point x="344" y="678"/>
      <point x="294" y="678" type="curve" smooth="yes"/>
      <point x="234" y="678"/>
      <point x="200" y="658"/>
      <point x="167" y="633" type="curve"/>
      <point x="145" y="672" type="line"/>
      <point x="36" y="672" type="line"/>
    </contour>
    <contour>
      <point x="357" y="753" type="move" name="top"/>
    </contour>
    <contour>
      <point x="344" y="170" type="move" name="bottom"/>
    </contour>
  </outline>
</glyph>
<glyph name="macronbelowcomb.case" format="1">
  <note>
    GF Latin Plus glyph
  </note>
  <outline>
    <component base="macron" xOffset="-447" yOffset="-860"/>
    <contour>
      <point x="-269" y="-150" type="move" name="_bottom"/>
    </contour>
  </outline>
</glyph>
<glyph name="micro" format="1">
  <advance width="595"/>
  <note>
    GF Latin Plus glyph
  </note>
  <outline>
    <contour>
      <point x="55" y="245" type="line"/>
      <point x="55" y="-269" type="line"/>
      <point x="203" y="-269" type="line"/>
      <point x="203" y="245" type="line"/>
    </contour>
    <contour>
      <point x="55" y="188" type="line" smooth="yes"/>
      <point x="55" y="62"/>
      <point x="167" y="-6"/>
      <point x="263" y="-6" type="curve" smooth="yes"/>
      <point x="323" y="-6"/>
      <point x="365" y="17"/>
      <point x="399" y="55" type="curve"/>
      <point x="417" y="0" type="line"/>
      <point x="540" y="0" type="line"/>
      <point x="540" y="537" type="line"/>
      <point x="391" y="537" type="line"/>
      <point x="391" y="164" type="line"/>
      <point x="360" y="140"/>
      <point x="325" y="125"/>
      <point x="281" y="125" type="curve" smooth="yes"/>
      <point x="236" y="125"/>
      <point x="203" y="141"/>
      <point x="203" y="201" type="curve" smooth="yes"/>
      <point x="203" y="537" type="line"/>
      <point x="55" y="537" type="line"/>
    </contour>
  </outline>
</glyph>
<glyph name="naira.smcp" format="1">
  <advance width="511"/>
  <outline>
    <contour>
      <point x="75" y="0" type="line"/>
      <point x="187" y="0" type="line"/>
      <point x="187" y="308" type="line"/>
      <point x="346" y="0" type="line"/>
      <point x="436" y="0" type="line"/>
      <point x="436" y="561" type="line"/>
      <point x="324" y="561" type="line"/>
      <point x="324" y="254" type="line"/>
      <point x="166" y="561" type="line"/>
      <point x="75" y="561" type="line"/>
    </contour>
    <contour>
      <point x="217" y="368" type="line"/>
      <point x="475" y="368" type="line"/>
      <point x="475" y="434" type="line"/>
      <point x="181" y="434" type="line"/>
    </contour>
    <contour>
      <point x="36" y="368" type="line"/>
      <point x="127" y="368" type="line"/>
      <point x="127" y="434" type="line"/>
      <point x="36" y="434" type="line"/>
    </contour>
    <contour>
      <point x="406" y="127" type="line"/>
      <point x="475" y="127" type="line"/>
      <point x="475" y="193" type="line"/>
      <point x="406" y="193" type="line"/>
    </contour>
    <contour>
      <point x="36" y="127" type="line"/>
      <point x="351" y="127" type="line"/>
      <point x="308" y="193" type="line"/>
      <point x="36" y="193" type="line"/>
    </contour>
  </outline>
</glyph>
<glyph name="nine.smcp" format="1">
  <advance width="505"/>
  <outline>
    <contour>
      <point x="327" y="320" type="curve"/>
      <point x="238" y="320" type="line" smooth="yes"/>
      <point x="194" y="320"/>
      <point x="171" y="331"/>
      <point x="171" y="373" type="curve" smooth="yes"/>
      <point x="171" y="400" type="line" smooth="yes"/>
      <point x="171" y="434"/>
      <point x="191" y="445"/>
      <point x="219" y="445" type="curve" smooth="yes"/>
      <point x="255" y="445" type="line" smooth="yes"/>
      <point x="308" y="445"/>
      <point x="327" y="419"/>
    </contour>
    <contour>
      <point x="461" y="291" type="curve" smooth="yes"/>
      <point x="461" y="508"/>
      <point x="399" y="564"/>
      <point x="277" y="564" type="curve" smooth="yes"/>
      <point x="193" y="564" type="line" smooth="yes"/>
      <point x="103" y="564"/>
      <point x="43" y="525"/>
      <point x="43" y="428" type="curve" smooth="yes"/>
      <point x="43" y="347" type="line" smooth="yes"/>
      <point x="43" y="274"/>
      <point x="75" y="222"/>
      <point x="190" y="222" type="curve" smooth="yes"/>
      <point x="256" y="222"/>
      <point x="289" y="228"/>
      <point x="327" y="244" type="curve"/>
      <point x="327" y="161"/>
      <point x="297" y="115"/>
      <point x="215" y="115" type="curve" smooth="yes"/>
      <point x="78" y="115" type="line"/>
      <point x="78" y="9" type="line"/>
      <point x="121" y="0"/>
      <point x="176" y="-4"/>
      <point x="231" y="-4" type="curve" smooth="yes"/>
      <point x="376" y="-4"/>
      <point x="461" y="64"/>
    </contour>
  </outline>
</glyph>
<glyph name="numbersign.smcp" format="1">
  <advance width="616"/>
  <outline>
    <contour>
      <point x="252" y="239" type="line"/>
      <point x="266" y="314" type="line"/>
      <point x="350" y="314" type="line"/>
      <point x="336" y="239" type="line"/>
    </contour>
    <contour>
      <point x="22" y="149" type="line"/>
      <point x="139" y="149" type="line"/>
      <point x="109" y="0" type="line"/>
      <point x="205" y="0" type="line"/>
      <point x="235" y="149" type="line"/>
      <point x="314" y="149" type="line"/>
      <point x="284" y="0" type="line"/>
      <point x="380" y="0" type="line"/>
      <point x="410" y="149" type="line"/>
      <point x="553" y="149" type="line"/>
      <point x="566" y="239" type="line"/>
      <point x="431" y="239" type="line"/>
      <point x="445" y="314" type="line"/>
      <point x="580" y="314" type="line"/>
      <point x="594" y="404" type="line"/>
      <point x="460" y="404" type="line"/>
      <point x="489" y="553" type="line"/>
      <point x="393" y="553" type="line"/>
      <point x="364" y="404" type="line"/>
      <point x="285" y="404" type="line"/>
      <point x="315" y="553" type="line"/>
      <point x="220" y="553" type="line"/>
      <point x="190" y="404" type="line"/>
      <point x="65" y="404" type="line"/>
      <point x="49" y="314" type="line"/>
      <point x="171" y="314" type="line"/>
      <point x="157" y="239" type="line"/>
      <point x="37" y="239" type="line"/>
    </contour>
  </outline>
</glyph>
<glyph name="o.superior" format="1">
  <advance width="427"/>
  <outline>
    <contour>
      <point x="156" y="477" type="curve" smooth="yes"/>
      <point x="156" y="575"/>
      <point x="172" y="584"/>
      <point x="213" y="584" type="curve" smooth="yes"/>
      <point x="254" y="584"/>
      <point x="271" y="575"/>
      <point x="271" y="477" type="curve" smooth="yes"/>
      <point x="271" y="380"/>
      <point x="254" y="370"/>
      <point x="213" y="370" type="curve" smooth="yes"/>
      <point x="172" y="370"/>
      <point x="156" y="380"/>
    </contour>
    <contour>
      <point x="26" y="477" type="curve" smooth="yes"/>
      <point x="26" y="329"/>
      <point x="75" y="277"/>
      <point x="213" y="277" type="curve" smooth="yes"/>
      <point x="355" y="277"/>
      <point x="401" y="324"/>
      <point x="401" y="477" type="curve" smooth="yes"/>
      <point x="401" y="632"/>
      <point x="351" y="678"/>
      <point x="213" y="678" type="curve" smooth="yes"/>
      <point x="76" y="678"/>
      <point x="26" y="635"/>
    </contour>
    <contour>
      <point x="213" y="753" type="move" name="top"/>
    </contour>
    <contour>
      <point x="255" y="280" type="move" name="ogonek"/>
    </contour>
    <contour>
      <point x="213" y="170" type="move" name="bottom"/>
    </contour>
  </outline>
</glyph>
<glyph name="one.smcp" format="1">
  <advance width="325"/>
  <outline>
    <contour>
      <point x="32" y="433" type="line"/>
      <point x="131" y="445" type="line"/>
      <point x="131" y="0" type="line"/>
      <point x="272" y="0" type="line"/>
      <point x="272" y="565" type="line"/>
      <point x="147" y="565" type="line"/>
      <point x="32" y="518" type="line"/>
    </contour>
  </outline>
</glyph>
<glyph name="percent.smcp" format="1">
  <advance width="797"/>
  <outline>
    <contour>
      <point x="555" y="124" type="curve" smooth="yes"/>
      <point x="555" y="170" type="line" smooth="yes"/>
      <point x="555" y="200"/>
      <point x="570" y="205"/>
      <point x="593" y="205" type="curve" smooth="yes"/>
      <point x="637" y="205" type="line" smooth="yes"/>
      <point x="662" y="205"/>
      <point x="673" y="198"/>
      <point x="673" y="170" type="curve" smooth="yes"/>
      <point x="673" y="124" type="line" smooth="yes"/>
      <point x="673" y="102"/>
      <point x="666" y="88"/>
      <point x="635" y="88" type="curve" smooth="yes"/>
      <point x="591" y="88" type="line" smooth="yes"/>
      <point x="561" y="88"/>
      <point x="555" y="102"/>
    </contour>
    <contour>
      <point x="464" y="103" type="line" smooth="yes"/>
      <point x="464" y="39"/>
      <point x="494" y="2"/>
      <point x="572" y="2" type="curve" smooth="yes"/>
      <point x="654" y="2" type="line" smooth="yes"/>
      <point x="735" y="2"/>
      <point x="764" y="39"/>
      <point x="764" y="103" type="curve" smooth="yes"/>
      <point x="764" y="190" type="line" smooth="yes"/>
      <point x="764" y="254"/>
      <point x="734" y="291"/>
      <point x="656" y="291" type="curve" smooth="yes"/>
      <point x="574" y="291" type="line" smooth="yes"/>
      <point x="493" y="291"/>
      <point x="464" y="254"/>
      <point x="464" y="190" type="curve" smooth="yes"/>
    </contour>
    <contour>
      <point x="170" y="0" type="line"/>
      <point x="266" y="0" type="line"/>
      <point x="622" y="553" type="line"/>
      <point x="532" y="553" type="line"/>
    </contour>
    <contour>
      <point x="125" y="385" type="curve" smooth="yes"/>
      <point x="125" y="431" type="line" smooth="yes"/>
      <point x="125" y="461"/>
      <point x="139" y="467"/>
      <point x="162" y="467" type="curve" smooth="yes"/>
      <point x="207" y="467" type="line" smooth="yes"/>
      <point x="232" y="467"/>
      <point x="243" y="460"/>
      <point x="243" y="431" type="curve" smooth="yes"/>
      <point x="243" y="385" type="line" smooth="yes"/>
      <point x="243" y="363"/>
      <point x="236" y="349"/>
      <point x="205" y="349" type="curve" smooth="yes"/>
      <point x="160" y="349" type="line" smooth="yes"/>
      <point x="130" y="349"/>
      <point x="125" y="363"/>
    </contour>
    <contour>
      <point x="34" y="364" type="line" smooth="yes"/>
      <point x="34" y="300"/>
      <point x="64" y="263"/>
      <point x="143" y="263" type="curve" smooth="yes"/>
      <point x="224" y="263" type="line" smooth="yes"/>
      <point x="304" y="263"/>
      <point x="334" y="300"/>
      <point x="334" y="364" type="curve" smooth="yes"/>
      <point x="334" y="452" type="line" smooth="yes"/>
      <point x="334" y="516"/>
      <point x="303" y="553"/>
      <point x="225" y="553" type="curve" smooth="yes"/>
      <point x="144" y="553" type="line" smooth="yes"/>
      <point x="63" y="553"/>
      <point x="34" y="516"/>
      <point x="34" y="452" type="curve" smooth="yes"/>
    </contour>
  </outline>
</glyph>
<glyph name="peseta.smcp" format="1">
  <advance width="511"/>
  <outline>
    <contour>
      <point x="202" y="228" type="line"/>
      <point x="202" y="448" type="line"/>
      <point x="271" y="448" type="line" smooth="yes"/>
      <point x="298" y="448"/>
      <point x="321" y="428"/>
      <point x="321" y="339" type="curve" smooth="yes"/>
      <point x="321" y="248"/>
      <point x="300" y="228"/>
      <point x="270" y="228" type="curve" smooth="yes"/>
    </contour>
    <contour>
      <point x="61" y="0" type="line"/>
      <point x="202" y="0" type="line"/>
      <point x="202" y="129" type="line"/>
      <point x="221" y="123"/>
      <point x="263" y="115"/>
      <point x="292" y="115" type="curve" smooth="yes"/>
      <point x="364" y="115"/>
      <point x="454" y="143"/>
      <point x="454" y="340" type="curve" smooth="yes"/>
      <point x="454" y="536"/>
      <point x="362" y="560"/>
      <point x="285" y="560" type="curve" smooth="yes"/>
      <point x="61" y="560" type="line"/>
    </contour>
    <contour>
      <point x="157" y="301" type="line"/>
      <point x="491" y="301" type="line"/>
      <point x="491" y="366" type="line"/>
      <point x="157" y="366" type="line"/>
    </contour>
    <contour>
      <point x="21" y="301" type="line"/>
      <point x="148" y="301" type="line"/>
      <point x="148" y="366" type="line"/>
      <point x="21" y="366" type="line"/>
    </contour>
  </outline>
</glyph>
<glyph name="peso.smcp" format="1">
  <advance width="511"/>
  <outline>
    <contour>
      <point x="381" y="381" type="line"/>
      <point x="491" y="381" type="line"/>
      <point x="491" y="446" type="line"/>
      <point x="381" y="446" type="line"/>
    </contour>
    <contour>
      <point x="20" y="381" type="line"/>
      <point x="137" y="381" type="line"/>
      <point x="137" y="446" type="line"/>
      <point x="20" y="446" type="line"/>
    </contour>
    <contour>
      <point x="361" y="248" type="line"/>
      <point x="491" y="248" type="line"/>
      <point x="491" y="313" type="line"/>
      <point x="384" y="313" type="line"/>
    </contour>
    <contour>
      <point x="20" y="248" type="line"/>
      <point x="140" y="248" type="line"/>
      <point x="140" y="313" type="line"/>
      <point x="20" y="313" type="line"/>
    </contour>
    <contour>
      <point x="204" y="280" type="line"/>
      <point x="204" y="440" type="line"/>
      <point x="263" y="440" type="line" smooth="yes"/>
      <point x="295" y="440"/>
      <point x="313" y="416"/>
      <point x="313" y="362" type="curve" smooth="yes"/>
      <point x="313" y="305"/>
      <point x="298" y="280"/>
      <point x="262" y="280" type="curve" smooth="yes"/>
    </contour>
    <contour>
      <point x="77" y="0" type="line"/>
      <point x="204" y="0" type="line"/>
      <point x="204" y="174" type="line"/>
      <point x="222" y="171"/>
      <point x="257" y="160"/>
      <point x="284" y="160" type="curve" smooth="yes"/>
      <point x="353" y="160"/>
      <point x="439" y="185"/>
      <point x="439" y="363" type="curve" smooth="yes"/>
      <point x="439" y="538"/>
      <point x="351" y="560"/>
      <point x="277" y="560" type="curve" smooth="yes"/>
      <point x="77" y="560" type="line"/>
    </contour>
  </outline>
</glyph>
<glyph name="r.salt" format="1">
  <advance width="378"/>
  <outline>
    <contour>
      <point x="57" y="0" type="line"/>
      <point x="205" y="0" type="line"/>
      <point x="205" y="389" type="line"/>
      <point x="233" y="400"/>
      <point x="267" y="408"/>
      <point x="311" y="408" type="curve" smooth="yes"/>
      <point x="329" y="408"/>
      <point x="346" y="405"/>
      <point x="364" y="403" type="curve"/>
      <point x="364" y="539" type="line"/>
      <point x="341" y="542"/>
      <point x="316" y="544"/>
      <point x="292" y="544" type="curve" smooth="yes"/>
      <point x="202" y="544"/>
      <point x="119" y="519"/>
      <point x="57" y="484" type="curve"/>
    </contour>
    <contour>
      <point x="217" y="650" type="move" name="top"/>
    </contour>
    <contour>
      <point x="131" y="-150" type="move" name="bottom"/>
    </contour>
  </outline>
</glyph>
<glyph name="ruble.smcp" format="1">
  <advance width="511"/>
  <outline>
    <contour>
      <point x="159" y="71" type="line"/>
      <point x="402" y="71" type="line"/>
      <point x="402" y="137" type="line"/>
      <point x="167" y="137" type="line"/>
    </contour>
    <contour>
      <point x="21" y="71" type="line"/>
      <point x="151" y="71" type="line"/>
      <point x="151" y="137" type="line"/>
      <point x="21" y="137" type="line"/>
    </contour>
    <contour>
      <point x="215" y="308" type="line"/>
      <point x="215" y="440" type="line"/>
      <point x="270" y="440" type="line" smooth="yes"/>
      <point x="307" y="440"/>
      <point x="322" y="420"/>
      <point x="322" y="375" type="curve" smooth="yes"/>
      <point x="322" y="331"/>
      <point x="310" y="308"/>
      <point x="270" y="308" type="curve" smooth="yes"/>
    </contour>
    <contour>
      <point x="81" y="0" type="line"/>
      <point x="215" y="0" type="line"/>
      <point x="215" y="201" type="line"/>
      <point x="229" y="199"/>
      <point x="270" y="193"/>
      <point x="292" y="193" type="curve" smooth="yes"/>
      <point x="368" y="193"/>
      <point x="456" y="218"/>
      <point x="456" y="376" type="curve" smooth="yes"/>
      <point x="456" y="539"/>
      <point x="364" y="560"/>
      <point x="286" y="560" type="curve" smooth="yes"/>
      <point x="81" y="560" type="line"/>
    </contour>
    <contour>
      <point x="21" y="242" type="line"/>
      <point x="150" y="242" type="line"/>
      <point x="150" y="308" type="line"/>
      <point x="21" y="308" type="line"/>
    </contour>
  </outline>
</glyph>
<glyph name="rupeeIndian" format="1">
  <advance width="609"/>
  <note>
    GF Latin Plus glyph
  </note>
  <outline>
    <contour>
      <point x="222" y="665" type="line"/>
      <point x="579" y="665" type="line"/>
      <point x="579" y="740" type="line"/>
      <point x="222" y="740" type="line"/>
    </contour>
    <contour>
      <point x="52" y="449" type="line"/>
      <point x="579" y="449" type="line"/>
      <point x="579" y="524" type="line"/>
      <point x="52" y="524" type="line"/>
    </contour>
    <contour>
      <point x="52" y="607" type="line"/>
      <point x="228" y="607" type="line" smooth="yes"/>
      <point x="277" y="607"/>
      <point x="311" y="581"/>
      <point x="311" y="489" type="curve" smooth="yes"/>
      <point x="311" y="388"/>
      <point x="268" y="363"/>
      <point x="222" y="363" type="curve" smooth="yes"/>
      <point x="52" y="363" type="line"/>
      <point x="52" y="239" type="line"/>
      <point x="67" y="238"/>
      <point x="185" y="238"/>
      <point x="196" y="237" type="curve"/>
      <point x="319" y="0" type="line"/>
      <point x="480" y="0" type="line"/>
      <point x="345" y="254" type="line"/>
      <point x="403" y="278"/>
      <point x="459" y="324"/>
      <point x="459" y="489" type="curve" smooth="yes"/>
      <point x="459" y="690"/>
      <point x="344" y="740"/>
      <point x="248" y="740" type="curve" smooth="yes"/>
      <point x="52" y="740" type="line"/>
    </contour>
  </outline>
</glyph>
<glyph name="seven.smcp" format="1">
  <advance width="470"/>
  <outline>
    <contour>
      <point x="28" y="427" type="line"/>
      <point x="261" y="427" type="line"/>
      <point x="98" y="0" type="line"/>
      <point x="254" y="0" type="line"/>
      <point x="443" y="505" type="line"/>
      <point x="408" y="560" type="line"/>
      <point x="28" y="560" type="line"/>
    </contour>
  </outline>
</glyph>
<glyph name="six.tnum" format="1">
  <advance width="609"/>
  <outline>
    <contour>
      <point x="204" y="320" type="curve"/>
      <point x="330" y="320" type="line" smooth="yes"/>
      <point x="392" y="320"/>
      <point x="420" y="306"/>
      <point x="420" y="248" type="curve" smooth="yes"/>
      <point x="420" y="199" type="line" smooth="yes"/>
      <point x="420" y="147"/>
      <point x="395" y="128"/>
      <point x="351" y="128" type="curve" smooth="yes"/>
      <point x="307" y="128" type="line" smooth="yes"/>
      <point x="236" y="128"/>
      <point x="204" y="168"/>
    </contour>
    <contour>
      <point x="56" y="360" type="curve" smooth="yes"/>
      <point x="56" y="70"/>
      <point x="133" y="-5"/>
      <point x="277" y="-5" type="curve" smooth="yes"/>
      <point x="385" y="-5" type="line" smooth="yes"/>
      <point x="492" y="-5"/>
      <point x="568" y="45"/>
      <point x="568" y="170" type="curve" smooth="yes"/>
      <point x="568" y="276" type="line" smooth="yes"/>
      <point x="568" y="381"/>
      <point x="518" y="446"/>
      <point x="371" y="446" type="curve" smooth="yes"/>
      <point x="304" y="446"/>
      <point x="250" y="442"/>
      <point x="204" y="429" type="curve"/>
      <point x="204" y="550"/>
      <point x="249" y="613"/>
      <point x="350" y="613" type="curve" smooth="yes"/>
      <point x="524" y="613" type="line"/>
      <point x="524" y="730" type="line"/>
      <point x="470" y="741"/>
      <point x="401" y="746"/>
      <point x="335" y="746" type="curve" smooth="yes"/>
      <point x="159" y="746"/>
      <point x="56" y="650"/>
    </contour>
  </outline>
</glyph>
<glyph name="sterling.smcp" format="1">
  <advance width="511"/>
  <outline>
    <contour>
      <point x="57" y="0" type="line"/>
      <point x="464" y="0" type="line"/>
      <point x="464" y="120" type="line"/>
      <point x="267" y="120" type="line"/>
      <point x="267" y="233" type="line"/>
      <point x="401" y="242" type="line"/>
      <point x="401" y="314" type="line"/>
      <point x="267" y="326" type="line"/>
      <point x="267" y="383" type="line" smooth="yes"/>
      <point x="267" y="432"/>
      <point x="285" y="446"/>
      <point x="334" y="446" type="curve" smooth="yes"/>
      <point x="464" y="446" type="line"/>
      <point x="464" y="553" type="line"/>
      <point x="433" y="558"/>
      <point x="385" y="564"/>
      <point x="328" y="564" type="curve" smooth="yes"/>
      <point x="185" y="564"/>
      <point x="126" y="507"/>
      <point x="126" y="368" type="curve" smooth="yes"/>
      <point x="126" y="326" type="line"/>
      <point x="57" y="308" type="line"/>
      <point x="57" y="242" type="line"/>
      <point x="126" y="233" type="line"/>
      <point x="126" y="120" type="line"/>
      <point x="57" y="102" type="line"/>
    </contour>
  </outline>
</glyph>
<glyph name="t_y" format="1">
  <advance width="957"/>
  <outline>
    <contour>
      <point x="363" y="418" type="line"/>
      <point x="410" y="418"/>
      <point x="433" y="398"/>
      <point x="446" y="345" type="curve" smooth="yes"/>
      <point x="502" y="144" type="line" smooth="yes"/>
      <point x="525" y="51"/>
      <point x="581" y="0"/>
      <point x="672" y="0" type="curve"/>
      <point x="610" y="-239" type="line"/>
      <point x="733" y="-239" type="line"/>
      <point x="783" y="-138" type="line"/>
      <point x="945" y="537" type="line"/>
      <point x="794" y="537" type="line"/>
      <point x="698" y="121" type="line"/>
      <point x="686" y="122"/>
      <point x="653" y="123"/>
      <point x="639" y="174" type="curve" smooth="yes"/>
      <point x="585" y="396" type="line" smooth="yes"/>
      <point x="562" y="504"/>
      <point x="491" y="537"/>
      <point x="363" y="537" type="curve"/>
    </contour>
    <component base="t"/>
  </outline>
</glyph>
<glyph name="three.smcp" format="1">
  <advance width="485"/>
  <outline>
    <contour>
      <point x="50" y="439" type="line"/>
      <point x="214" y="439" type="line" smooth="yes"/>
      <point x="275" y="439"/>
      <point x="296" y="426"/>
      <point x="296" y="394" type="curve" smooth="yes"/>
      <point x="296" y="375" type="line" smooth="yes"/>
      <point x="296" y="348"/>
      <point x="272" y="338"/>
      <point x="228" y="335" type="curve" smooth="yes"/>
      <point x="91" y="327" type="line"/>
      <point x="91" y="235" type="line"/>
      <point x="235" y="229" type="line" smooth="yes"/>
      <point x="276" y="227"/>
      <point x="302" y="215"/>
      <point x="302" y="183" type="curve" smooth="yes"/>
      <point x="302" y="162" type="line" smooth="yes"/>
      <point x="302" y="131"/>
      <point x="280" y="121"/>
      <point x="217" y="121" type="curve" smooth="yes"/>
      <point x="41" y="121" type="line"/>
      <point x="41" y="14" type="line"/>
      <point x="106" y="2"/>
      <point x="187" y="-5"/>
      <point x="272" y="-5" type="curve" smooth="yes"/>
      <point x="379" y="-5"/>
      <point x="444" y="44"/>
      <point x="444" y="135" type="curve" smooth="yes"/>
      <point x="444" y="159" type="line" smooth="yes"/>
      <point x="444" y="222"/>
      <point x="413" y="267"/>
      <point x="365" y="282" type="curve"/>
      <point x="411" y="297"/>
      <point x="435" y="330"/>
      <point x="435" y="385" type="curve" smooth="yes"/>
      <point x="435" y="424" type="line" smooth="yes"/>
      <point x="435" y="518"/>
      <point x="374" y="564"/>
      <point x="271" y="565" type="curve" smooth="yes"/>
      <point x="192" y="566"/>
      <point x="116" y="556"/>
      <point x="50" y="545" type="curve"/>
    </contour>
  </outline>
</glyph>
<glyph name="two.oldstyle" format="1">
  <advance width="584"/>
  <outline>
    <contour>
      <point x="72" y="410" type="line"/>
      <point x="270" y="410" type="line" smooth="yes"/>
      <point x="329" y="410"/>
      <point x="350" y="391"/>
      <point x="350" y="353" type="curve" smooth="yes"/>
      <point x="350" y="314"/>
      <point x="321" y="284"/>
      <point x="236" y="223" type="curve" smooth="yes"/>
      <point x="63" y="104" type="line"/>
      <point x="63" y="0" type="line"/>
      <point x="527" y="0" type="line"/>
      <point x="527" y="133" type="line"/>
      <point x="291" y="133" type="line"/>
      <point x="378" y="195" type="line" smooth="yes"/>
      <point x="465" y="256"/>
      <point x="499" y="323"/>
      <point x="499" y="384" type="curve" smooth="yes"/>
      <point x="499" y="492"/>
      <point x="438" y="543"/>
      <point x="292" y="543" type="curve" smooth="yes"/>
      <point x="207" y="543"/>
      <point x="129" y="535"/>
      <point x="72" y="527" type="curve"/>
    </contour>
  </outline>
</glyph>
<glyph name="two.smcp" format="1">
  <advance width="491"/>
  <outline>
    <contour>
      <point x="57" y="439" type="line"/>
      <point x="226" y="439" type="line" smooth="yes"/>
      <point x="276" y="439"/>
      <point x="296" y="421"/>
      <point x="296" y="386" type="curve" smooth="yes"/>
      <point x="296" y="351"/>
      <point x="275" y="323"/>
      <point x="236" y="287" type="curve" smooth="yes"/>
      <point x="46" y="106" type="line"/>
      <point x="46" y="0" type="line"/>
      <point x="454" y="0" type="line"/>
      <point x="454" y="119" type="line"/>
      <point x="232" y="119" type="line"/>
      <point x="347" y="228" type="line" smooth="yes"/>
      <point x="405" y="283"/>
      <point x="437" y="334"/>
      <point x="437" y="409" type="curve" smooth="yes"/>
      <point x="437" y="509"/>
      <point x="393" y="565"/>
      <point x="253" y="565" type="curve" smooth="yes"/>
      <point x="171" y="565"/>
      <point x="108" y="554"/>
      <point x="57" y="544" type="curve"/>
    </contour>
  </outline>
</glyph>
<glyph name="two.tosf" format="1">
  <advance width="609"/>
  <outline>
    <contour>
      <point x="87" y="410" type="line"/>
      <point x="286" y="410" type="line" smooth="yes"/>
      <point x="344" y="410"/>
      <point x="366" y="391"/>
      <point x="366" y="353" type="curve" smooth="yes"/>
      <point x="366" y="314"/>
      <point x="336" y="284"/>
      <point x="252" y="223" type="curve" smooth="yes"/>
      <point x="78" y="104" type="line"/>
      <point x="78" y="0" type="line"/>
      <point x="543" y="0" type="line"/>
      <point x="543" y="133" type="line"/>
      <point x="307" y="133" type="line"/>
      <point x="393" y="195" type="line" smooth="yes"/>
      <point x="481" y="256"/>
      <point x="514" y="323"/>
      <point x="514" y="384" type="curve" smooth="yes"/>
      <point x="514" y="492"/>
      <point x="453" y="543"/>
      <point x="308" y="543" type="curve" smooth="yes"/>
      <point x="223" y="543"/>
      <point x="144" y="535"/>
      <point x="87" y="527" type="curve"/>
    </contour>
  </outline>
</glyph>
<glyph name="u.superior" format="1">
  <advance width="444"/>
  <outline>
    <contour>
      <point x="35" y="394" type="line" smooth="yes"/>
      <point x="35" y="321"/>
      <point x="77" y="276"/>
      <point x="148" y="276" type="curve" smooth="yes"/>
      <point x="198" y="276"/>
      <point x="242" y="297"/>
      <point x="277" y="318" type="curve"/>
      <point x="300" y="280" type="line"/>
      <point x="408" y="280" type="line"/>
      <point x="408" y="672" type="line"/>
      <point x="277" y="672" type="line"/>
      <point x="277" y="412" type="line"/>
      <point x="262" y="397"/>
      <point x="232" y="387"/>
      <point x="212" y="387" type="curve" smooth="yes"/>
      <point x="184" y="387"/>
      <point x="165" y="396"/>
      <point x="165" y="433" type="curve" smooth="yes"/>
      <point x="165" y="672" type="line"/>
      <point x="35" y="672" type="line"/>
    </contour>
    <contour>
      <point x="220" y="753" type="move" name="top"/>
    </contour>
    <contour>
      <point x="400" y="280" type="move" name="ogonek"/>
    </contour>
    <contour>
      <point x="220" y="170" type="move" name="bottom"/>
    </contour>
  </outline>
</glyph>
<glyph name="uhorn.salt" format="1">
  <advance width="588"/>
  <outline>
    <contour>
      <point x="408" y="456" type="line"/>
      <point x="482" y="456" type="line" smooth="yes"/>
      <point x="569" y="456"/>
      <point x="629" y="520"/>
      <point x="629" y="647" type="curve"/>
      <point x="526" y="647" type="line"/>
      <point x="526" y="564"/>
      <point x="500" y="537"/>
      <point x="454" y="537" type="curve" smooth="yes"/>
      <point x="408" y="537" type="line"/>
    </contour>
    <component base="u.salt"/>
    <contour>
      <point x="292" y="650" type="move" name="top"/>
    </contour>
    <contour>
      <point x="290" y="-150" type="move" name="bottom"/>
    </contour>
  </outline>
</glyph>
<glyph name="w.superior" format="1">
  <advance width="622"/>
  <outline>
    <contour>
      <point x="7" y="672" type="line"/>
      <point x="107" y="280" type="line"/>
      <point x="248" y="280" type="line"/>
      <point x="310" y="492" type="line"/>
      <point x="373" y="280" type="line"/>
      <point x="516" y="280" type="line"/>
      <point x="614" y="672" type="line"/>
      <point x="480" y="672" type="line"/>
      <point x="431" y="396" type="line"/>
      <point x="364" y="672" type="line"/>
      <point x="258" y="672" type="line"/>
      <point x="192" y="396" type="line"/>
      <point x="142" y="672" type="line"/>
    </contour>
    <contour>
      <point x="315" y="753" type="move" name="top"/>
    </contour>
    <contour>
      <point x="315" y="170" type="move" name="bottom"/>
    </contour>
  </outline>
</glyph>
<glyph name="won.smcp" format="1">
  <advance width="511"/>
  <outline>
    <contour>
      <point x="420" y="354" type="line"/>
      <point x="495" y="354" type="line"/>
      <point x="495" y="419" type="line"/>
      <point x="413" y="419" type="line"/>
    </contour>
    <contour>
      <point x="16" y="354" type="line"/>
      <point x="108" y="354" type="line"/>
      <point x="108" y="419" type="line"/>
      <point x="16" y="419" type="line"/>
    </contour>
    <contour>
      <point x="372" y="142" type="line"/>
      <point x="495" y="142" type="line"/>
      <point x="495" y="207" type="line"/>
      <point x="372" y="207" type="line"/>
    </contour>
    <contour>
      <point x="16" y="142" type="line"/>
      <point x="156" y="142" type="line"/>
      <point x="134" y="207" type="line"/>
      <point x="16" y="207" type="line"/>
    </contour>
    <contour>
      <point x="41" y="560" type="line"/>
      <point x="78" y="0" type="line"/>
      <point x="202" y="0" type="line"/>
      <point x="249" y="245" type="line"/>
      <point x="309" y="0" type="line"/>
      <point x="432" y="0" type="line"/>
      <point x="466" y="560" type="line"/>
      <point x="350" y="560" type="line"/>
      <point x="333" y="235" type="line"/>
      <point x="282" y="455" type="line"/>
      <point x="226" y="455" type="line"/>
      <point x="174" y="235" type="line"/>
      <point x="158" y="560" type="line"/>
    </contour>
  </outline>
</glyph>
<glyph name="x.salt" format="1">
  <advance width="597"/>
  <outline>
    <contour>
      <point x="432" y="0" type="line"/>
      <point x="588" y="0" type="line"/>
      <point x="466" y="225" type="line" smooth="yes"/>
      <point x="456" y="243"/>
      <point x="452" y="261"/>
      <point x="452" y="277" type="curve" smooth="yes"/>
      <point x="452" y="294"/>
      <point x="456" y="311"/>
      <point x="469" y="331" type="curve" smooth="yes"/>
      <point x="588" y="537" type="line"/>
      <point x="432" y="537" type="line"/>
      <point x="342" y="385" type="line" smooth="yes"/>
      <point x="322" y="353"/>
      <point x="312" y="313"/>
      <point x="312" y="275" type="curve" smooth="yes"/>
      <point x="312" y="237"/>
      <point x="321" y="198"/>
      <point x="338" y="166" type="curve" smooth="yes"/>
    </contour>
    <contour>
      <point x="9" y="0" type="line"/>
      <point x="165" y="0" type="line"/>
      <point x="259" y="166" type="line" smooth="yes"/>
      <point x="276" y="197"/>
      <point x="284" y="237"/>
      <point x="284" y="275" type="curve" smooth="yes"/>
      <point x="284" y="313"/>
      <point x="274" y="353"/>
      <point x="255" y="385" type="curve" smooth="yes"/>
      <point x="165" y="537" type="line"/>
      <point x="9" y="537" type="line"/>
      <point x="128" y="331" type="line" smooth="yes"/>
      <point x="139" y="312"/>
      <point x="145" y="294"/>
      <point x="145" y="277" type="curve" smooth="yes"/>
      <point x="145" y="261"/>
      <point x="141" y="243"/>
      <point x="131" y="225" type="curve" smooth="yes"/>
    </contour>
    <contour>
      <point x="299" y="650" type="move" name="top"/>
    </contour>
    <contour>
      <point x="299" y="-150" type="move" name="bottom"/>
    </contour>
  </outline>
</glyph>
<glyph name="zero.oldstyle" format="1">
  <advance width="609"/>
  <outline>
    <contour>
      <point x="201" y="207" type="curve" smooth="yes"/>
      <point x="201" y="329" type="line" smooth="yes"/>
      <point x="201" y="386"/>
      <point x="233" y="408"/>
      <point x="276" y="408" type="curve" smooth="yes"/>
      <point x="339" y="408" type="line" smooth="yes"/>
      <point x="385" y="408"/>
      <point x="413" y="387"/>
      <point x="413" y="329" type="curve" smooth="yes"/>
      <point x="413" y="207" type="line" smooth="yes"/>
      <point x="413" y="151"/>
      <point x="387" y="128"/>
      <point x="339" y="128" type="curve" smooth="yes"/>
      <point x="276" y="128" type="line" smooth="yes"/>
      <point x="232" y="128"/>
      <point x="201" y="149"/>
    </contour>
    <contour>
      <point x="53" y="178" type="line" smooth="yes"/>
      <point x="53" y="70"/>
      <point x="105" y="-6"/>
      <point x="235" y="-6" type="curve" smooth="yes"/>
      <point x="380" y="-6" type="line" smooth="yes"/>
      <point x="513" y="-6"/>
      <point x="561" y="70"/>
      <point x="561" y="178" type="curve" smooth="yes"/>
      <point x="561" y="358" type="line" smooth="yes"/>
      <point x="561" y="459"/>
      <point x="519" y="542"/>
      <point x="380" y="542" type="curve" smooth="yes"/>
      <point x="235" y="542" type="line" smooth="yes"/>
      <point x="104" y="542"/>
      <point x="53" y="463"/>
      <point x="53" y="358" type="curve" smooth="yes"/>
    </contour>
  </outline>
</glyph>
<glyph name="zero.smcp" format="1">
  <advance width="539"/>
  <outline>
    <contour>
      <point x="189" y="166" type="curve" smooth="yes"/>
      <point x="189" y="395" type="line" smooth="yes"/>
      <point x="189" y="429"/>
      <point x="205" y="445"/>
      <point x="238" y="445" type="curve" smooth="yes"/>
      <point x="303" y="445" type="line" smooth="yes"/>
      <point x="330" y="445"/>
      <point x="349" y="434"/>
      <point x="349" y="395" type="curve" smooth="yes"/>
      <point x="349" y="165" type="line" smooth="yes"/>
      <point x="349" y="131"/>
      <point x="331" y="115"/>
      <point x="297" y="115" type="curve" smooth="yes"/>
      <point x="243" y="115" type="line" smooth="yes"/>
      <point x="207" y="115"/>
      <point x="189" y="130"/>
    </contour>
    <contour>
      <point x="48" y="145" type="line" smooth="yes"/>
      <point x="48" y="50"/>
      <point x="102" y="-4"/>
      <point x="209" y="-4" type="curve" smooth="yes"/>
      <point x="335" y="-4" type="line" smooth="yes"/>
      <point x="434" y="-4"/>
      <point x="490" y="52"/>
      <point x="490" y="145" type="curve" smooth="yes"/>
      <point x="490" y="408" type="line" smooth="yes"/>
      <point x="490" y="509"/>
      <point x="436" y="565"/>
      <point x="336" y="565" type="curve" smooth="yes"/>
      <point x="209" y="565" type="line" smooth="yes"/>
      <point x="107" y="565"/>
      <point x="48" y="510"/>
      <point x="48" y="408" type="curve" smooth="yes"/>
    </contour>
  </outline>
</glyph>
<glyph name="zero.zero" format="1">
  <advance width="647"/>
  <note>
    GF Latin Plus glyph
  </note>
  <outline>
    <contour>
      <point x="423" y="658" type="line"/>
      <point x="131" y="85" type="line"/>
      <point x="214" y="85" type="line"/>
      <point x="506" y="658" type="line"/>
    </contour>
    <component base="zero"/>
  </outline>
</glyph>
